<?xml version="1.0" encoding="UTF-8"?>
<svg version="1.1" xmlns="http://www.w3.org/2000/svg" width="121" height="89">
<path d="M0 0 C1.42238226 2.84476452 1.23845037 5.37041536 1.3515625 8.546875 C1.38629166 9.52010712 1.38629166 9.52010712 1.42172241 10.51300049 C1.46936531 11.88814505 1.51459903 13.26337487 1.55761719 14.63867188 C1.62430489 16.72821984 1.70226645 18.81713516 1.78125 20.90625 C1.82620938 22.24476872 1.8705012 23.58331005 1.9140625 24.921875 C1.9548291 26.13456055 1.9955957 27.34724609 2.03759766 28.59667969 C2.00167664 31.84823108 1.62931041 34.8151421 1 38 C0.34 38 -0.32 38 -1 38 C-0.95875 39.216875 -0.9175 40.43375 -0.875 41.6875 C-0.875 45.98570629 -1.78558679 49.07173816 -4.08984375 52.73046875 C-5.33944587 55.8464294 -4.99639016 58.23169644 -4.6875 61.5625 C-4.5740625 62.79613281 -4.460625 64.02976562 -4.34375 65.30078125 C-4.2303125 66.52152344 -4.116875 67.74226563 -4 69 C-3.9484375 70.08667969 -3.896875 71.17335938 -3.84375 72.29296875 C-3.76640625 73.75669922 -3.76640625 73.75669922 -3.6875 75.25 C-3.63142578 76.55710938 -3.63142578 76.55710938 -3.57421875 77.890625 C-3.21839925 80.17388756 -3.21839925 80.17388756 -1.08203125 81.109375 C-0.39496094 81.40328125 0.29210937 81.6971875 1 82 C3 85 3 85 3 89 C-36.93 89 -76.86 89 -118 89 C-117 85 -117 85 -115 82 C-112.875 80.8125 -112.875 80.8125 -111 80 C-111.02320312 79.09636719 -111.04640625 78.19273438 -111.0703125 77.26171875 C-111.08835937 76.08222656 -111.10640625 74.90273437 -111.125 73.6875 C-111.14820312 72.51574219 -111.17140625 71.34398438 -111.1953125 70.13671875 C-111 67 -111 67 -109 64 C-108.61500109 62.34450469 -108.27206865 60.6777567 -108 59 C-108.66 59 -109.32 59 -110 59 C-110.12375 57.9275 -110.2475 56.855 -110.375 55.75 C-110.90974123 52.54155261 -111.47716789 50.7601332 -113 48 C-114.29080467 44.18182149 -114.16172949 40.29613833 -114.16796875 36.3125 C-114.17129715 35.57298096 -114.17462555 34.83346191 -114.17805481 34.0715332 C-114.18310616 32.5115623 -114.18546369 30.95158064 -114.18530273 29.39160156 C-114.18749239 27.00828274 -114.20567528 24.6254247 -114.22460938 22.2421875 C-114.22754306 20.72395991 -114.22952802 19.20573013 -114.23046875 17.6875 C-114.23765427 16.97698486 -114.24483978 16.26646973 -114.25224304 15.53442383 C-114.23512001 11.81948175 -113.97179479 9.17509041 -112 6 C-111.773125 5.278125 -111.54625 4.55625 -111.3125 3.8125 C-110 2 -110 2 -106.6875 1.1875 C-99.34917127 0.81436464 -99.34917127 0.81436464 -95.9375 3.8125 C-95.298125 4.534375 -94.65875 5.25625 -94 6 C-90.98731272 9.22577835 -90.98731272 9.22577835 -87 11 C-86.67 11.66 -86.34 12.32 -86 13 C-85.01 13.66 -84.02 14.32 -83 15 C-82.01 15.66 -81.02 16.32 -80 17 C-80 17.66 -80 18.32 -80 19 C-79.34 19 -78.68 19 -78 19 C-76.375 21 -76.375 21 -75 23 C-74.01 22.67 -73.02 22.34 -72 22 C-70.824375 22.020625 -69.64875 22.04125 -68.4375 22.0625 C-64.2545736 22.13195819 -60.45731949 21.38263975 -56.39453125 20.4375 C-53.87997839 19.97807109 -51.55047449 19.9275176 -49 20 C-48.505 20.99 -48.505 20.99 -48 22 C-44.7 22 -41.4 22 -38 22 C-38 21.01 -38 20.02 -38 19 C-37.01 19 -36.02 19 -35 19 C-34.67 18.34 -34.34 17.68 -34 17 C-32.125 14.875 -32.125 14.875 -30 13 C-29.01 13 -28.02 13 -27 13 C-26.67 12.01 -26.34 11.02 -26 10 C-25.01 10 -24.02 10 -23 10 C-22.67 9.01 -22.34 8.02 -22 7 C-21.34 7 -20.68 7 -20 7 C-19.34 6.01 -18.68 5.02 -18 4 C-16.67696283 3.6278958 -15.34262065 3.29369827 -14 3 C-13.34 2.34 -12.68 1.68 -12 1 C-8.15899602 -0.47730922 -4.04749486 -0.06745825 0 0 Z M-113 10 C-112 13 -112 13 -112 13 Z M0 25 C0 27.31 0 29.62 0 32 C0.33 32 0.66 32 1 32 C1 29.69 1 27.38 1 25 C0.67 25 0.34 25 0 25 Z M-4 47 C-3 49 -3 49 -3 49 Z M-7 55 C-6 58 -6 58 -6 58 Z M-110 67 C-109 69 -109 69 -109 69 Z " fill="#EEAC4B" transform="translate(118,0)"/>
<path d="M0 0 C1.42238226 2.84476452 1.23845037 5.37041536 1.3515625 8.546875 C1.38629166 9.52010712 1.38629166 9.52010712 1.42172241 10.51300049 C1.46936531 11.88814505 1.51459903 13.26337487 1.55761719 14.63867188 C1.62430489 16.72821984 1.70226645 18.81713516 1.78125 20.90625 C1.82620938 22.24476872 1.8705012 23.58331005 1.9140625 24.921875 C1.9548291 26.13456055 1.9955957 27.34724609 2.03759766 28.59667969 C2.00167664 31.84823108 1.62931041 34.8151421 1 38 C0.34 38 -0.32 38 -1 38 C-0.95875 39.216875 -0.9175 40.43375 -0.875 41.6875 C-0.875 45.98570629 -1.78558679 49.07173816 -4.08984375 52.73046875 C-5.33944587 55.8464294 -4.99639016 58.23169644 -4.6875 61.5625 C-4.5740625 62.79613281 -4.460625 64.02976562 -4.34375 65.30078125 C-4.2303125 66.52152344 -4.116875 67.74226563 -4 69 C-3.9484375 70.08667969 -3.896875 71.17335938 -3.84375 72.29296875 C-3.76640625 73.75669922 -3.76640625 73.75669922 -3.6875 75.25 C-3.63142578 76.55710938 -3.63142578 76.55710938 -3.57421875 77.890625 C-3.21839925 80.17388756 -3.21839925 80.17388756 -1.08203125 81.109375 C-0.39496094 81.40328125 0.29210937 81.6971875 1 82 C3 85 3 85 3 89 C-1.29 89 -5.58 89 -10 89 C-10 87.68 -10 86.36 -10 85 C-17.24096313 80.36578359 -23.55666209 80.57308966 -32 81 C-28.78360346 79.25434889 -26.67986596 78.795563 -23 79 C-23 78.34 -23 77.68 -23 77 C-27.68965706 75.88341499 -30.53763531 76.19380477 -35 78 C-35 77.34 -35 76.68 -35 76 C-33.68 75.67 -32.36 75.34 -31 75 C-31 74.34 -31 73.68 -31 73 C-31.70125 72.896875 -32.4025 72.79375 -33.125 72.6875 C-36.38644309 71.9075897 -39.00954197 70.49522901 -42 69 C-42.99 69 -43.98 69 -45 69 C-45.598125 69.680625 -46.19625 70.36125 -46.8125 71.0625 C-47.534375 71.701875 -48.25625 72.34125 -49 73 C-52.25 72.75 -52.25 72.75 -55 72 C-56.125 68.25 -56.125 68.25 -55 66 C-57.97 66.495 -57.97 66.495 -61 67 C-57.69739517 63.69739517 -54.2889396 63.77443631 -49.8125 63.4375 C-48.72582031 63.35371094 -47.63914062 63.26992188 -46.51953125 63.18359375 C-45.68808594 63.12300781 -44.85664062 63.06242187 -44 63 C-43.01 60.69 -42.02 58.38 -41 56 C-40.67 56.99 -40.34 57.98 -40 59 C-38.68 58.34 -37.36 57.68 -36 57 C-36.185625 56.360625 -36.37125 55.72125 -36.5625 55.0625 C-36.7790625 54.0415625 -36.7790625 54.0415625 -37 53 C-36 52 -36 52 -33.125 51.6875 C-30 52 -30 52 -28.125 53.5625 C-26.33547473 57.43980476 -26.30584133 60.94943933 -27.6796875 65.0078125 C-28.39758436 66.69657941 -29.1928331 68.35203424 -30 70 C-25.85329961 67.62370911 -25.85329961 67.62370911 -23 64 C-22.34368441 59.22764809 -22.32620632 56.00048153 -25.0625 51.9375 C-28.68442047 49.54857373 -30.73713928 49.60529067 -35 50 C-35.99 50 -36.98 50 -38 50 C-37.505 49.01 -37.505 49.01 -37 48 C-38.65 48.33 -40.3 48.66 -42 49 C-40.6062718 44.56541027 -38.39417765 42.12621626 -35 39 C-35.875 43.75 -35.875 43.75 -37 46 C-35.046875 45.96744792 -33.09375 45.93489583 -31.140625 45.90234375 C-28.8463908 46.00700772 -27.13361131 46.1263608 -25 47 C-23.5859375 49.03125 -23.5859375 49.03125 -22.375 51.5 C-20.86497402 54.90839542 -20.86497402 54.90839542 -18 57 C-17.375 60.0625 -17.375 60.0625 -17 63 C-16.071875 62.95875 -15.14375 62.9175 -14.1875 62.875 C-11 63 -11 63 -8 65 C-8.34786708 63.02463255 -8.34786708 63.02463255 -9 61 C-9.66 60.67 -10.32 60.34 -11 60 C-11 59.34 -11 58.68 -11 58 C-11.66 58 -12.32 58 -13 58 C-13.99 56.02 -14.98 54.04 -16 52 C-14.02 52.495 -14.02 52.495 -12 53 C-12.33342424 46.33151516 -15.98795823 42.00447382 -20.5546875 37.44921875 C-23.47674468 34.8829561 -26.30548377 33.19528466 -30 32 C-30.17673419 27.4932782 -30.13551182 24.03374456 -28 20 C-27.01 19.505 -27.01 19.505 -26 19 C-26 18.01 -26 17.02 -26 16 C-27.051875 17.0828125 -27.051875 17.0828125 -28.125 18.1875 C-28.58648437 18.63738281 -29.04796875 19.08726563 -29.5234375 19.55078125 C-30.96191767 20.9626229 -32.35679244 22.41846482 -33.75 23.875 C-37.75878138 26.49612629 -39.68334104 26.19947609 -44.2421875 25.39453125 C-44.82226562 25.26433594 -45.40234375 25.13414063 -46 25 C-45.95875 26.27875 -45.9175 27.5575 -45.875 28.875 C-45.85842217 34.08872856 -46.81688642 38.94007672 -48 44 C-48.33 44 -48.66 44 -49 44 C-49.13277344 42.90300781 -49.26554687 41.80601563 -49.40234375 40.67578125 C-49.58062985 39.22134199 -49.7590208 37.76691558 -49.9375 36.3125 C-50.02451172 35.59126953 -50.11152344 34.87003906 -50.20117188 34.12695312 C-50.66313805 30.37989416 -51.19167679 26.69207089 -52 23 C-53.98 23 -55.96 23 -58 23 C-58 23.66 -58 24.32 -58 25 C-57.01 25 -56.02 25 -55 25 C-53.74566542 28.76300374 -53.89304578 32.27210909 -53.9375 36.1875 C-53.94201172 36.93708984 -53.94652344 37.68667969 -53.95117188 38.45898438 C-53.96293646 40.30602383 -53.98087135 42.15302213 -54 44 C-56.61086815 42.69456592 -56.7089063 41.65974813 -57.7265625 38.96484375 C-58.0359375 38.15595703 -58.3453125 37.34707031 -58.6640625 36.51367188 C-58.98117188 35.66353516 -59.29828125 34.81339844 -59.625 33.9375 C-60.11226562 32.65649414 -60.11226562 32.65649414 -60.609375 31.34960938 C-61.41255115 29.23536628 -62.20910214 27.11886025 -63 25 C-64.41655793 24.9727585 -65.83327045 24.95349533 -67.25 24.9375 C-68.03890625 24.92589844 -68.8278125 24.91429688 -69.640625 24.90234375 C-71.99557062 24.90599745 -71.99557062 24.90599745 -74.1550293 25.62402344 C-75.06828979 25.81013184 -75.06828979 25.81013184 -76 26 C-78.26953125 24.078125 -78.26953125 24.078125 -80.8125 21.25 C-85.16366493 16.61752931 -89.75575421 12.64171957 -94.875 8.875 C-95.50510986 8.40223633 -96.13521973 7.92947266 -96.78442383 7.44238281 C-100.13187049 5.02198312 -102.84841584 3.39463728 -107 3 C-110.06908859 9.00473855 -110.73297266 14.30075535 -111 21 C-111.03254883 21.65436035 -111.06509766 22.3087207 -111.09863281 22.98291016 C-111.4946013 31.70821571 -111.17182291 39.90537187 -109.1875 48.4375 C-109.0222583 49.15309082 -108.8570166 49.86868164 -108.68676758 50.60595703 C-107.74508398 54.26367771 -106.83018644 56.50518247 -104 59 C-104.1875 61.625 -104.1875 61.625 -105 65 C-105.66 67.97 -106.32 70.94 -107 74 C-100.73 74 -94.46 74 -88 74 C-91 76 -91 76 -94 76 C-94.0825 76.515625 -94.165 77.03125 -94.25 77.5625 C-95.32140225 81.04455732 -97.13523605 83.87200885 -99 87 C-100.32 87 -101.64 87 -103 87 C-103 87.66 -103 88.32 -103 89 C-107.95 89 -112.9 89 -118 89 C-117 85 -117 85 -115 82 C-112.875 80.8125 -112.875 80.8125 -111 80 C-111.02320312 79.09636719 -111.04640625 78.19273438 -111.0703125 77.26171875 C-111.08835937 76.08222656 -111.10640625 74.90273437 -111.125 73.6875 C-111.14820312 72.51574219 -111.17140625 71.34398438 -111.1953125 70.13671875 C-111 67 -111 67 -109 64 C-108.61500109 62.34450469 -108.27206865 60.6777567 -108 59 C-108.66 59 -109.32 59 -110 59 C-110.12375 57.9275 -110.2475 56.855 -110.375 55.75 C-110.90974123 52.54155261 -111.47716789 50.7601332 -113 48 C-114.29080467 44.18182149 -114.16172949 40.29613833 -114.16796875 36.3125 C-114.17129715 35.57298096 -114.17462555 34.83346191 -114.17805481 34.0715332 C-114.18310616 32.5115623 -114.18546369 30.95158064 -114.18530273 29.39160156 C-114.18749239 27.00828274 -114.20567528 24.6254247 -114.22460938 22.2421875 C-114.22754306 20.72395991 -114.22952802 19.20573013 -114.23046875 17.6875 C-114.23765427 16.97698486 -114.24483978 16.26646973 -114.25224304 15.53442383 C-114.23512001 11.81948175 -113.97179479 9.17509041 -112 6 C-111.773125 5.278125 -111.54625 4.55625 -111.3125 3.8125 C-110 2 -110 2 -106.6875 1.1875 C-99.34917127 0.81436464 -99.34917127 0.81436464 -95.9375 3.8125 C-95.298125 4.534375 -94.65875 5.25625 -94 6 C-90.98731272 9.22577835 -90.98731272 9.22577835 -87 11 C-86.67 11.66 -86.34 12.32 -86 13 C-85.01 13.66 -84.02 14.32 -83 15 C-82.01 15.66 -81.02 16.32 -80 17 C-80 17.66 -80 18.32 -80 19 C-79.34 19 -78.68 19 -78 19 C-76.375 21 -76.375 21 -75 23 C-74.01 22.67 -73.02 22.34 -72 22 C-70.824375 22.020625 -69.64875 22.04125 -68.4375 22.0625 C-64.2545736 22.13195819 -60.45731949 21.38263975 -56.39453125 20.4375 C-53.87997839 19.97807109 -51.55047449 19.9275176 -49 20 C-48.505 20.99 -48.505 20.99 -48 22 C-44.7 22 -41.4 22 -38 22 C-38 21.01 -38 20.02 -38 19 C-37.01 19 -36.02 19 -35 19 C-34.67 18.34 -34.34 17.68 -34 17 C-32.125 14.875 -32.125 14.875 -30 13 C-29.01 13 -28.02 13 -27 13 C-26.67 12.01 -26.34 11.02 -26 10 C-25.01 10 -24.02 10 -23 10 C-22.67 9.01 -22.34 8.02 -22 7 C-21.34 7 -20.68 7 -20 7 C-19.34 6.01 -18.68 5.02 -18 4 C-16.67696283 3.6278958 -15.34262065 3.29369827 -14 3 C-13.34 2.34 -12.68 1.68 -12 1 C-8.15899602 -0.47730922 -4.04749486 -0.06745825 0 0 Z M-113 10 C-112 13 -112 13 -112 13 Z M0 25 C0 27.31 0 29.62 0 32 C0.33 32 0.66 32 1 32 C1 29.69 1 27.38 1 25 C0.67 25 0.34 25 0 25 Z M-4 47 C-3 49 -3 49 -3 49 Z M-7 55 C-6 58 -6 58 -6 58 Z M-110 67 C-109 69 -109 69 -109 69 Z " fill="#BA886A" transform="translate(118,0)"/>
<path d="M0 0 C0.495 1.98 0.495 1.98 1 4 C0.01 4.33 -0.98 4.66 -2 5 C-2.66 8.96 -3.32 12.92 -4 17 C-3.01 17.165 -2.02 17.33 -1 17.5 C5.00493705 19.22961676 9.07700989 24.08924448 12.4296875 29.1640625 C15.15132631 34.1756319 15.15132631 34.1756319 14.58984375 37.234375 C14.39519531 37.81703125 14.20054688 38.3996875 14 39 C13.01 38.67 12.02 38.34 11 38 C11.66 39.65 12.32 41.3 13 43 C13.66 43 14.32 43 15 43 C15 43.66 15 44.32 15 45 C15.99 45.33 16.98 45.66 18 46 C18 47.32 18 48.64 18 50 C16.52031676 49.85950482 15.04125484 49.71245174 13.5625 49.5625 C12.73878906 49.48128906 11.91507813 49.40007812 11.06640625 49.31640625 C9 49 9 49 8 48 C7.95919217 46.00041636 7.95745644 43.99954746 8 42 C7.01 41.67 6.02 41.34 5 41 C1 35.74285714 1 35.74285714 1 32 C-3.29 32 -7.58 32 -12 32 C-11.34 30.68 -10.68 29.36 -10 28 C-10 27.01 -10 26.02 -10 25 C-12.475 28.465 -12.475 28.465 -15 32 C-13.68 32.33 -12.36 32.66 -11 33 C-10.67 33.66 -10.34 34.32 -10 35 C-9.67 34.67 -9.34 34.34 -9 34 C-4.83599038 33.59961446 -2.67749304 33.55815672 0.875 35.875 C3.73785628 38.73785628 4.1865146 40.36716762 4.3125 44.3125 C4.27376938 47.74845903 4.04247701 48.92718227 2.25 52 C0.04691751 53.95829554 -1.10905762 54.69025617 -4 55 C-3.505 53.4840625 -3.505 53.4840625 -3 51.9375 C-1.94382118 48.21824173 -1.70170923 44.87778006 -2 41 C-2.66 40.01 -3.32 39.02 -4 38 C-7.08365871 37.7497843 -7.08365871 37.7497843 -10 38 C-9.79375 38.61875 -9.5875 39.2375 -9.375 39.875 C-9.25125 40.57625 -9.1275 41.2775 -9 42 C-9.66 42.66 -10.32 43.32 -11 44 C-13.125 43.625 -13.125 43.625 -15 43 C-15.99 44.98 -16.98 46.96 -18 49 C-23.28 48.67 -28.56 48.34 -34 48 C-34 48.66 -34 49.32 -34 50 C-35.32 50 -36.64 50 -38 50 C-38.03867187 49.09507813 -38.03867187 49.09507813 -38.078125 48.171875 C-38.45359342 42.88118365 -38.9513909 40.64374819 -43 37 C-42.69728039 35.65938457 -42.36162029 34.32594105 -42 33 C-43.35400645 30.27018168 -43.35400645 30.27018168 -45 28 C-43.68 28.33 -42.36 28.66 -41 29 C-42.8596789 22.8876625 -42.8596789 22.8876625 -45.6875 17.1875 C-47 15 -47 15 -47 11 C-46.34 11 -45.68 11 -45 11 C-41.43818941 15.47509535 -39.08069764 19.69422102 -37 25 C-36.67 25.66 -36.34 26.32 -36 27 C-35.39750223 21.21602144 -36.56222705 18.46039694 -40.00390625 13.796875 C-40.49697266 12.90742188 -40.49697266 12.90742188 -41 12 C-40.67 11.01 -40.34 10.02 -40 9 C-38.12011719 9.24780273 -38.12011719 9.24780273 -36 10 C-34.90332031 11.76586914 -34.90332031 11.76586914 -34.078125 14.03515625 C-33.77519531 14.84404297 -33.47226562 15.65292969 -33.16015625 16.48632812 C-32.85980469 17.33646484 -32.55945312 18.18660156 -32.25 19.0625 C-31.77626953 20.34350586 -31.77626953 20.34350586 -31.29296875 21.65039062 C-30.51447632 23.76175645 -29.75538396 25.88025681 -29 28 C-29 22.06 -29 16.12 -29 10 C-29.99 10 -30.98 10 -32 10 C-32 9.34 -32 8.68 -32 8 C-30.02 8 -28.04 8 -26 8 C-23.5978396 12.8043208 -23.38877771 17.73103895 -23 23 C-21.32889958 20.03821227 -20.67317248 17.62928808 -20.375 14.25 C-20.30023438 13.45078125 -20.22546875 12.6515625 -20.1484375 11.828125 C-20.09945312 11.22484375 -20.05046875 10.6215625 -20 10 C-19.41992188 10.05800781 -18.83984375 10.11601562 -18.2421875 10.17578125 C-13.73193152 10.43627458 -11.60757075 10.40894185 -7.75 7.8125 C-6.8425 6.884375 -5.935 5.95625 -5 5 C-4.04194214 4.06221849 -3.08362427 3.1247025 -2.125 2.1875 C-1.073125 1.1046875 -1.073125 1.1046875 0 0 Z " fill="#F6AF4C" transform="translate(92,15)"/>
<path d="M0 0 C3.31680151 2.59575771 5.40539481 5.12738739 7 9 C7.25065631 12.02792822 7.08957617 14.95441028 7 18 C10.96 17.01 14.92 16.02 19 15 C18.67 16.98 18.34 18.96 18 21 C22.10223585 22.01540112 22.10223585 22.01540112 26 21 C26.66 20.01 27.32 19.02 28 18 C33.06998019 18.65419099 37.41990777 20.8546409 42 23 C42 23.66 42 24.32 42 25 C40.68 25.33 39.36 25.66 38 26 C41.02124523 26.10197713 41.02124523 26.10197713 44 25.375 C47 25 47 25 50 27 C50 27.66 50 28.32 50 29 C48.515 29.495 48.515 29.495 47 30 C48.7015625 29.8453125 48.7015625 29.8453125 50.4375 29.6875 C55.80478533 29.63949208 59.60676024 32.15252979 64 35 C63.67 36.32 63.34 37.64 63 39 C32.31 39 1.62 39 -30 39 C-30 38.34 -30 37.68 -30 37 C-8.5989937 31.03057984 -8.5989937 31.03057984 2 32 C2.33 30.68 2.66 29.36 3 28 C2.30132812 27.87882812 1.60265625 27.75765625 0.8828125 27.6328125 C-0.02726562 27.46523437 -0.93734375 27.29765625 -1.875 27.125 C-2.77992187 26.96257812 -3.68484375 26.80015625 -4.6171875 26.6328125 C-7 26 -7 26 -9 24 C-5.7 23.01 -2.4 22.02 1 21 C1 19.35 1 17.7 1 16 C1.99 16 2.98 16 4 16 C4.43587443 10.23130973 4.43587443 10.23130973 2.3125 5 C0.15740951 2.75578565 0.15740951 2.75578565 -2.75 2.6875 C-3.4925 2.790625 -4.235 2.89375 -5 3 C-4.67 4.98 -4.34 6.96 -4 9 C-5.32 9 -6.64 9 -8 9 C-7.88541307 10.43836751 -7.75790884 11.87570966 -7.625 13.3125 C-7.55539063 14.11300781 -7.48578125 14.91351563 -7.4140625 15.73828125 C-7.10435574 18.27224441 -7.10435574 18.27224441 -5 21 C-10.46905941 20.39232673 -10.46905941 20.39232673 -12.67578125 18.76171875 C-15.23497567 15.35700877 -14.48583559 11.05510771 -14 7 C-11.23104025 0.67094914 -6.75317348 -1.3057894 0 0 Z " fill="#F3E3AA" transform="translate(45,50)"/>
<path d="M0 0 C0.625 1.8125 0.625 1.8125 1 4 C0.01 5.485 0.01 5.485 -1 7 C0.953125 6.96744792 2.90625 6.93489583 4.859375 6.90234375 C7.1536092 7.00700772 8.86638869 7.1263608 11 8 C12.4140625 10.03125 12.4140625 10.03125 13.625 12.5 C15.13502598 15.90839542 15.13502598 15.90839542 18 18 C18.625 21.0625 18.625 21.0625 19 24 C19.928125 23.95875 20.85625 23.9175 21.8125 23.875 C25 24 25 24 28 26 C28.495 24.515 28.495 24.515 29 23 C30.05466451 27.3462384 30.21736935 31.61249512 30.25 36.0625 C30.270625 36.76955078 30.29125 37.47660156 30.3125 38.20507812 C30.33733058 41.51064962 30.21959362 43.63834969 28.484375 46.49609375 C27.99453125 46.99238281 27.5046875 47.48867187 27 48 C26.62875 47.566875 26.2575 47.13375 25.875 46.6875 C21.17548213 42.45793391 16.81611214 41.63727985 10.625 41.8125 C9.37976563 41.83957031 8.13453125 41.86664063 6.8515625 41.89453125 C5.44003906 41.94673828 5.44003906 41.94673828 4 42 C7.21639654 40.25434889 9.32013404 39.795563 13 40 C13 39.34 13 38.68 13 38 C8.31034294 36.88341499 5.46236469 37.19380477 1 39 C1 38.34 1 37.68 1 37 C2.98 36.505 2.98 36.505 5 36 C5 35.34 5 34.68 5 34 C4.29875 33.896875 3.5975 33.79375 2.875 33.6875 C-0.38644309 32.9075897 -3.00954197 31.49522901 -6 30 C-6.99 30 -7.98 30 -9 30 C-9.8971875 31.0209375 -9.8971875 31.0209375 -10.8125 32.0625 C-11.8953125 33.0215625 -11.8953125 33.0215625 -13 34 C-16.25 33.75 -16.25 33.75 -19 33 C-20.125 29.25 -20.125 29.25 -19 27 C-20.98 27.33 -22.96 27.66 -25 28 C-21.69739517 24.69739517 -18.2889396 24.77443631 -13.8125 24.4375 C-12.18248047 24.31181641 -12.18248047 24.31181641 -10.51953125 24.18359375 C-9.68808594 24.12300781 -8.85664062 24.06242187 -8 24 C-7.01 21.69 -6.02 19.38 -5 17 C-4.67 17.99 -4.34 18.98 -4 20 C-2.68 19.34 -1.36 18.68 0 18 C-0.185625 17.360625 -0.37125 16.72125 -0.5625 16.0625 C-0.706875 15.381875 -0.85125 14.70125 -1 14 C0 13 0 13 2.875 12.6875 C6 13 6 13 7.875 14.5625 C9.66452527 18.43980476 9.69415867 21.94943933 8.3203125 26.0078125 C7.60241564 27.69657941 6.8071669 29.35203424 6 31 C10.14670039 28.62370911 10.14670039 28.62370911 13 25 C13.65631559 20.22764809 13.67379368 17.00048153 10.9375 12.9375 C7.31557953 10.54857373 5.26286072 10.60529067 1 11 C0.01 11 -0.98 11 -2 11 C-1.67 10.34 -1.34 9.68 -1 9 C-2.65 9.33 -4.3 9.66 -6 10 C-4.6302836 6.00499382 -2.74277578 3.19990508 0 0 Z " fill="#DDA856" transform="translate(82,39)"/>
<path d="M0 0 C1.65 0 3.3 0 5 0 C6.36521517 4.97476134 6.00149627 9.84174969 5.75 14.9375 C5.70407715 15.86957275 5.6581543 16.80164551 5.61083984 17.76196289 C5.02768885 27.73831734 3.76369077 37.07140641 -1 46 C-2.9375 45.375 -2.9375 45.375 -5 44 C-5.8125 40.9375 -5.8125 40.9375 -6 38 C-5.505 37.505 -5.505 37.505 -5 37 C-4.95936168 35.33382885 -4.957279 33.66611905 -5 32 C-5.99 32 -6.98 32 -8 32 C-7.34 32.99 -6.68 33.98 -6 35 C-6.66 35 -7.32 35 -8 35 C-7.67 35.99 -7.34 36.98 -7 38 C-10.40040734 36.86653089 -11.53729252 35.53733498 -14 33 C-15.31558703 31.97676564 -16.64377755 30.96873032 -18 30 C-17.67 29.34 -17.34 28.68 -17 28 C-17.99 28 -18.98 28 -20 28 C-18.0342012 21.70944385 -14.28183912 16.35220096 -8.625 13 C-7.75875 12.67 -6.8925 12.34 -6 12 C-6 11.01 -6 10.02 -6 9 C-5.34 8.34 -4.68 7.68 -4 7 C-4.66 6.34 -5.32 5.68 -6 5 C-5.34 4.01 -4.68 3.02 -4 2 C-2.68 2 -1.36 2 0 2 C0 1.34 0 0.68 0 0 Z " fill="#EFBBA8" transform="translate(110,1)"/>
<path d="M0 0 C4.37859255 0.50522222 6.81651224 3.17827222 10 6 C9.67 6.66 9.34 7.32 9 8 C8.01 8 7.02 8 6 8 C6.99 9.65 7.98 11.3 9 13 C7.02 13 5.04 13 3 13 C3 13.66 3 14.32 3 15 C4.32 15.33 5.64 15.66 7 16 C7 16.66 7 17.32 7 18 C7.99 17.67 8.98 17.34 10 17 C8.68 16.01 7.36 15.02 6 14 C7.98 14 9.96 14 12 14 C11.67 13.67 11.34 13.34 11 13 C9.99357052 11.67151309 8.99307821 10.33849671 8 9 C13.22926405 10.47073052 17.41637993 14.00733149 21 18 C21 18.99 21 19.98 21 21 C21.99 21.66 22.98 22.32 24 23 C24 23.66 24 24.32 24 25 C22.35546875 26.47265625 22.35546875 26.47265625 20.1875 28.0625 C19.47980469 28.58972656 18.77210937 29.11695312 18.04296875 29.66015625 C16 31 16 31 13 32 C12.29848848 33.3153341 11.63474075 34.65117592 11 36 C9.375 37.75 9.375 37.75 8 39 C6.875 34.25 6.875 34.25 8 32 C8.66 32 9.32 32 10 32 C10 31.34 10 30.68 10 30 C8.02 31.32 6.04 32.64 4 34 C4.34786708 35.97536745 4.34786708 35.97536745 5 38 C5.66 38.33 6.32 38.66 7 39 C5.25 45.75 5.25 45.75 3 48 C-1.50227966 39.37971948 -2.7223041 31.73761058 -2.48706055 22.12475586 C-2.43696534 20.0402522 -2.4255249 17.95810315 -2.41992188 15.87304688 C-2.30477516 4.88893447 -2.30477516 4.88893447 0 0 Z " fill="#EDB8A5" transform="translate(11,6)"/>
<path d="M0 0 C0.33 1.32 0.66 2.64 1 4 C0.01 4.33 -0.98 4.66 -2 5 C-2.66 8.96 -3.32 12.92 -4 17 C-3.01 17.165 -2.02 17.33 -1 17.5 C5.00493705 19.22961676 9.07700989 24.08924448 12.4296875 29.1640625 C15.15132631 34.1756319 15.15132631 34.1756319 14.58984375 37.234375 C14.39519531 37.81703125 14.20054688 38.3996875 14 39 C12.515 38.505 12.515 38.505 11 38 C11.66 39.65 12.32 41.3 13 43 C13.66 43 14.32 43 15 43 C15 43.66 15 44.32 15 45 C15.99 45.33 16.98 45.66 18 46 C18 47.32 18 48.64 18 50 C16.52031676 49.85950482 15.04125484 49.71245174 13.5625 49.5625 C12.73878906 49.48128906 11.91507813 49.40007812 11.06640625 49.31640625 C9 49 9 49 8 48 C7.95919217 46.00041636 7.95745644 43.99954746 8 42 C6.515 41.505 6.515 41.505 5 41 C1 35.74285714 1 35.74285714 1 32 C-3.29 32 -7.58 32 -12 32 C-11.34 30.68 -10.68 29.36 -10 28 C-10 27.01 -10 26.02 -10 25 C-12.475 28.465 -12.475 28.465 -15 32 C-17.82635362 27.76046956 -16.82688218 24.92151235 -16.0625 20.0625 C-15.92231445 18.84530273 -15.92231445 18.84530273 -15.77929688 17.60351562 C-14.86958353 11.73610522 -14.86958353 11.73610522 -12.38720703 9.63476562 C-10.63785851 8.66740914 -8.81954474 7.82780178 -7 7 C-4.77183014 4.46557594 -4.77183014 4.46557594 -3 2 C-2.01 1.34 -1.02 0.68 0 0 Z " fill="#F4AF4C" transform="translate(92,15)"/>
<path d="M0 0 C2.375 1.8125 2.375 1.8125 4 4 C7.01268728 7.22577835 7.01268728 7.22577835 11 9 C11.33 9.66 11.66 10.32 12 11 C12.99 11.66 13.98 12.32 15 13 C15.99 13.66 16.98 14.32 18 15 C18 15.66 18 16.32 18 17 C18.66 17 19.32 17 20 17 C21.625 19 21.625 19 23 21 C23.99 20.67 24.98 20.34 26 20 C28.00875442 20.27571139 30.01178687 20.60235737 32 21 C32 21.33 32 21.66 32 22 C28.58692163 23.56216819 25.76521223 24.31461342 22 24 C19.51156636 22.14307218 17.53455066 20.12245476 15.47290039 17.80981445 C11.70843774 13.60115967 7.68475044 10.20295634 3.125 6.875 C2.49440674 6.40231689 1.86381348 5.92963379 1.21411133 5.44262695 C-2.132048 3.02077666 -4.84885128 1.39459589 -9 1 C-12.06908859 7.00473855 -12.73297266 12.30075535 -13 19 C-13.03254883 19.65436035 -13.06509766 20.3087207 -13.09863281 20.98291016 C-13.4946013 29.70821571 -13.17182291 37.90537187 -11.1875 46.4375 C-11.0222583 47.15309082 -10.8570166 47.86868164 -10.68676758 48.60595703 C-9.74508398 52.26367771 -8.83018644 54.50518247 -6 57 C-6.1875 59.625 -6.1875 59.625 -7 63 C-7.66 65.97 -8.32 68.94 -9 72 C-2.73 72 3.54 72 10 72 C7 74 7 74 4 74 C3.9175 74.515625 3.835 75.03125 3.75 75.5625 C2.67859775 79.04455732 0.86476395 81.87200885 -1 85 C-2.32 85 -3.64 85 -5 85 C-5 85.66 -5 86.32 -5 87 C-9.95 87 -14.9 87 -20 87 C-19 83 -19 83 -17 80 C-14.875 78.8125 -14.875 78.8125 -13 78 C-13.02320313 77.09636719 -13.04640625 76.19273438 -13.0703125 75.26171875 C-13.08835937 74.08222656 -13.10640625 72.90273437 -13.125 71.6875 C-13.14820313 70.51574219 -13.17140625 69.34398438 -13.1953125 68.13671875 C-13 65 -13 65 -11 62 C-10.61500109 60.34450469 -10.27206865 58.6777567 -10 57 C-10.66 57 -11.32 57 -12 57 C-12.12375 55.9275 -12.2475 54.855 -12.375 53.75 C-12.90974123 50.54155261 -13.47716789 48.7601332 -15 46 C-16.29080467 42.18182149 -16.16172949 38.29613833 -16.16796875 34.3125 C-16.17129715 33.57298096 -16.17462555 32.83346191 -16.17805481 32.0715332 C-16.18310616 30.5115623 -16.18546369 28.95158064 -16.18530273 27.39160156 C-16.18749239 25.00828274 -16.20567528 22.6254247 -16.22460938 20.2421875 C-16.22754306 18.72395991 -16.22952802 17.20573013 -16.23046875 15.6875 C-16.23765427 14.97698486 -16.24483978 14.26646973 -16.25224304 13.53442383 C-16.23515692 9.82749028 -15.99759838 7.15669868 -14 4 C-13.67 3.278125 -13.34 2.55625 -13 1.8125 C-10.46381708 -2.78433153 -4.35350855 -0.91875992 0 0 Z M-15 8 C-14 11 -14 11 -14 11 Z M-12 65 C-11 67 -11 67 -11 67 Z " fill="#E4943F" transform="translate(20,2)"/>
<path d="M0 0 C3.34365498 0.53194511 4.76887239 1.84080402 6.8125 4.50390625 C8.51694989 8.01933415 8.13056669 11.63183313 7.75 15.4375 C6.43 15.1075 5.11 14.7775 3.75 14.4375 C4.08 16.0875 4.41 17.7375 4.75 19.4375 C1.78 20.7575 -1.19 22.0775 -4.25 23.4375 C-0.95 24.4275 2.35 25.4175 5.75 26.4375 C5.42 27.7575 5.09 29.0775 4.75 30.4375 C3.63882813 30.55867188 2.52765625 30.67984375 1.3828125 30.8046875 C-6.57329311 31.69356791 -14.43765393 32.63317437 -22.25 34.4375 C-21.52734629 30.48610909 -20.81418059 27.62062073 -18.25 24.4375 C-15.0625 23.625 -15.0625 23.625 -12.25 23.4375 C-11.59 21.4575 -10.93 19.4775 -10.25 17.4375 C-10.91 17.4375 -11.57 17.4375 -12.25 17.4375 C-11.92 16.1175 -11.59 14.7975 -11.25 13.4375 C-10.486875 14.2625 -9.72375 15.0875 -8.9375 15.9375 C-6.49565858 18.77805197 -6.49565858 18.77805197 -3.25 18.4375 C-3.9925 17.385625 -3.9925 17.385625 -4.75 16.3125 C-6.4436681 13.06630281 -6.50162315 11.04409844 -6.25 7.4375 C-5.59 7.1075 -4.93 6.7775 -4.25 6.4375 C-3.26 6.7675 -2.27 7.0975 -1.25 7.4375 C-1.91 5.4575 -2.57 3.4775 -3.25 1.4375 C-2.25 0.4375 -2.25 0.4375 0 0 Z " fill="#CFB275" transform="translate(42.25,51.5625)"/>
<path d="M0 0 C4.51020195 0.38658874 7.38429295 2.39332748 11 5 C10.34 5.66 9.68 6.32 9 7 C9.53109375 7.51949219 10.0621875 8.03898438 10.609375 8.57421875 C14.31050353 12.22807009 17.87158441 15.82877921 21 20 C20.67 20.66 20.34 21.32 20 22 C19.44570313 21.4946875 18.89140625 20.989375 18.3203125 20.46875 C17.59585937 19.8190625 16.87140625 19.169375 16.125 18.5 C15.40570312 17.8503125 14.68640625 17.200625 13.9453125 16.53125 C12.15068902 14.79382728 12.15068902 14.79382728 10 15 C10.99 15.66 11.98 16.32 13 17 C12.67 17.66 12.34 18.32 12 19 C10.68 19 9.36 19 8 19 C8.99 19.99 9.98 20.98 11 22 C9.68 22 8.36 22 7 22 C7 21.34 7 20.68 7 20 C5.68 19.67 4.36 19.34 3 19 C3 18.34 3 17.68 3 17 C4.65 16.67 6.3 16.34 8 16 C6.68 14.02 5.36 12.04 4 10 C5.65 10.33 7.3 10.66 9 11 C6.19195732 8.03595495 3.81684226 5.55500981 0 4 C-1.39978083 9.96615191 -1.2604899 15.98012932 -1.29516602 22.07250977 C-1.30664948 23.47365446 -1.32704384 24.87475666 -1.35668945 26.27563477 C-1.53900349 34.91161643 -1.11838938 42.22288888 3 50 C3.99 49.505 3.99 49.505 5 49 C5.87271942 45.42978418 6.41227433 42.46649153 5 39 C4.34 38.67 3.68 38.34 3 38 C7.75 34 7.75 34 10 34 C10 34.66 10 35.32 10 36 C9.34 36 8.68 36 8 36 C8.33 37.98 8.66 39.96 9 42 C9.7115625 40.7315625 9.7115625 40.7315625 10.4375 39.4375 C13.35930715 35.01787113 17.59916951 31.87158437 22 29 C22.66 29 23.32 29 24 29 C23.67 27.68 23.34 26.36 23 25 C23.99 25.99 24.98 26.98 26 28 C24.1851982 32.89996485 20.08345276 35.94828902 15.5546875 38.234375 C11.76395587 40.85426903 10.07747279 44.56331308 7.95117188 48.52539062 C6.96484375 50.26171875 6.96484375 50.26171875 5 53 C3.68 53 2.36 53 1 53 C0.67 53.99 0.34 54.98 0 56 C-0.65077296 53.95990245 -1.29539824 51.91784331 -1.9375 49.875 C-2.29714844 48.73804688 -2.65679687 47.60109375 -3.02734375 46.4296875 C-4.76338211 40.30823496 -5.16424894 34.6275879 -5.125 28.3125 C-5.11883667 27.11983521 -5.11883667 27.11983521 -5.11254883 25.90307617 C-4.91423918 4.91423918 -4.91423918 4.91423918 0 0 Z " fill="#CD9566" transform="translate(11,2)"/>
<path d="M0 0 C3.125 0.3125 3.125 0.3125 5 1.875 C6.92945187 6.05547904 6.59775434 9.79293248 5.25 14.125 C4.125 16.3125 4.125 16.3125 2.125 18.3125 C0.13671875 18.54296875 0.13671875 18.54296875 -2.1875 18.5 C-2.991875 18.48839844 -3.79625 18.47679688 -4.625 18.46484375 C-6.875 18.3125 -6.875 18.3125 -9.6875 17.5625 C-10.409375 17.48 -11.13125 17.3975 -11.875 17.3125 C-12.514375 17.9725 -13.15375 18.6325 -13.8125 19.3125 C-14.493125 19.9725 -15.17375 20.6325 -15.875 21.3125 C-19.125 21.0625 -19.125 21.0625 -21.875 20.3125 C-23 16.5625 -23 16.5625 -21.875 14.3125 C-23.855 14.6425 -25.835 14.9725 -27.875 15.3125 C-24.57239517 12.00989517 -21.1639396 12.08693631 -16.6875 11.75 C-15.60082031 11.66621094 -14.51414062 11.58242188 -13.39453125 11.49609375 C-12.56308594 11.43550781 -11.73164062 11.37492187 -10.875 11.3125 C-9.885 9.0025 -8.895 6.6925 -7.875 4.3125 C-7.545 5.3025 -7.215 6.2925 -6.875 7.3125 C-5.555 6.6525 -4.235 5.9925 -2.875 5.3125 C-3.060625 4.673125 -3.24625 4.03375 -3.4375 3.375 C-3.581875 2.694375 -3.72625 2.01375 -3.875 1.3125 C-2.875 0.3125 -2.875 0.3125 0 0 Z " fill="#F5DEA5" transform="translate(84.875,51.6875)"/>
<path d="M0 0 C2.64 0 5.28 0 8 0 C9.42238226 2.84476452 9.23845037 5.37041536 9.3515625 8.546875 C9.37471527 9.19569641 9.39786804 9.84451782 9.42172241 10.51300049 C9.46936531 11.88814505 9.51459903 13.26337487 9.55761719 14.63867188 C9.62430489 16.72821984 9.70226645 18.81713516 9.78125 20.90625 C9.82620938 22.24476872 9.8705012 23.58331005 9.9140625 24.921875 C9.9548291 26.13456055 9.9955957 27.34724609 10.03759766 28.59667969 C10.00167664 31.84823108 9.62931041 34.8151421 9 38 C8.34 38 7.68 38 7 38 C7.061875 39.8253125 7.061875 39.8253125 7.125 41.6875 C7.125 45.98570629 6.21441321 49.07173816 3.91015625 52.73046875 C2.66055413 55.8464294 3.00360984 58.23169644 3.3125 61.5625 C3.4259375 62.79613281 3.539375 64.02976562 3.65625 65.30078125 C3.7696875 66.52152344 3.883125 67.74226563 4 69 C4.0515625 70.08667969 4.103125 71.17335938 4.15625 72.29296875 C4.23359375 73.75669922 4.23359375 73.75669922 4.3125 75.25 C4.34988281 76.12140625 4.38726562 76.9928125 4.42578125 77.890625 C4.78160075 80.17388756 4.78160075 80.17388756 6.91796875 81.109375 C7.60503906 81.40328125 8.29210937 81.6971875 9 82 C11 85 11 85 11 89 C6.71 89 2.42 89 -2 89 C-1.51144531 88.16726562 -1.02289063 87.33453125 -0.51953125 86.4765625 C1.22643801 82.48192845 1.36818304 79.71827701 1.3125 75.375 C1.30319458 74.32493774 1.30319458 74.32493774 1.29370117 73.25366211 C1.20489299 68.90404567 0.68992813 64.83447823 -0.1875 60.5625 C-1.28610855 54.90812312 -0.34106898 51.16820736 2 46 C6.37209619 36.10525598 6.17883411 24.82835096 6.1875 14.1875 C6.18830566 13.21433838 6.18911133 12.24117676 6.18994141 11.23852539 C6.33317189 6.46038276 6.33317189 6.46038276 5 2 C2.47266765 1.34444881 2.47266765 1.34444881 0 1 C0 0.67 0 0.34 0 0 Z M8 25 C8 27.31 8 29.62 8 32 C8.33 32 8.66 32 9 32 C9 29.69 9 27.38 9 25 C8.67 25 8.34 25 8 25 Z M4 47 C5 49 5 49 5 49 Z M1 55 C2 58 2 58 2 58 Z " fill="#3E302D" transform="translate(110,0)"/>
<path d="M0 0 C5.22926405 1.47073052 9.41637993 5.00733149 13 9 C13 9.99 13 10.98 13 12 C13.99 12.66 14.98 13.32 16 14 C16 14.66 16 15.32 16 16 C14.35546875 17.47265625 14.35546875 17.47265625 12.1875 19.0625 C11.47980469 19.58972656 10.77210937 20.11695312 10.04296875 20.66015625 C8 22 8 22 5 23 C4.29848848 24.3153341 3.63474075 25.65117592 3 27 C1.375 28.75 1.375 28.75 0 30 C-1.125 25.25 -1.125 25.25 0 23 C0.66 23 1.32 23 2 23 C2 22.34 2 21.68 2 21 C0.35 21.66 -1.3 22.32 -3 23 C-2.690625 22.401875 -2.38125 21.80375 -2.0625 21.1875 C-0.89790296 18.91043228 -0.89790296 18.91043228 0 16 C-0.66 15.67 -1.32 15.34 -2 15 C-0.68 14.01 0.64 13.02 2 12 C1.34 11.01 0.68 10.02 0 9 C0.66 8.67 1.32 8.34 2 8 C0.68 7.01 -0.64 6.02 -2 5 C-0.02 5 1.96 5 4 5 C3.67 4.67 3.34 4.34 3 4 C1.99357052 2.67151309 0.99307821 1.33849671 0 0 Z " fill="#ECD7A6" transform="translate(19,15)"/>
<path d="M0 0 C0.99 0.33 1.98 0.66 3 1 C1.35549209 2.69434148 -0.30962167 4.35220047 -2 6 C-2.81404297 6.82564453 -2.81404297 6.82564453 -3.64453125 7.66796875 C-6.90973866 10.77102139 -8.29520372 11.93287655 -12.9375 12.375 C-13.948125 12.25125 -14.95875 12.1275 -16 12 C-15.95875 13.27875 -15.9175 14.5575 -15.875 15.875 C-15.85842217 21.08872856 -16.81688642 25.94007672 -18 31 C-18.33 31 -18.66 31 -19 31 C-19.19916016 29.35451172 -19.19916016 29.35451172 -19.40234375 27.67578125 C-19.58062985 26.22134199 -19.7590208 24.76691558 -19.9375 23.3125 C-20.02451172 22.59126953 -20.11152344 21.87003906 -20.20117188 21.12695312 C-20.66313805 17.37989416 -21.19167679 13.69207089 -22 10 C-23.98 10 -25.96 10 -28 10 C-28 10.66 -28 11.32 -28 12 C-27.01 12 -26.02 12 -25 12 C-23.74566542 15.76300374 -23.89304578 19.27210909 -23.9375 23.1875 C-23.94201172 23.93708984 -23.94652344 24.68667969 -23.95117188 25.45898438 C-23.96293646 27.30602383 -23.98087135 29.15302213 -24 31 C-26.60170063 29.69914968 -26.65485982 28.73252239 -27.62109375 26.03515625 C-27.91693359 25.23529297 -28.21277344 24.43542969 -28.51757812 23.61132812 C-29.12916234 21.91681135 -29.73855068 20.22150037 -30.34570312 18.52539062 C-30.79139648 17.32366211 -30.79139648 17.32366211 -31.24609375 16.09765625 C-31.64332642 14.99176147 -31.64332642 14.99176147 -32.04858398 13.86352539 C-32.98309158 11.65823053 -32.98309158 11.65823053 -36 10 C-34.10614563 9.49255577 -32.20981334 8.99435426 -30.3125 8.5 C-29.25675781 8.2215625 -28.20101562 7.943125 -27.11328125 7.65625 C-24.28857328 7.0608285 -21.87163292 6.87213508 -19 7 C-18.67 7.66 -18.34 8.32 -18 9 C-14.7 9 -11.4 9 -8 9 C-8 8.01 -8 7.02 -8 6 C-7.01 6 -6.02 6 -5 6 C-4.67 5.34 -4.34 4.68 -4 4 C-2.68671343 2.64691687 -1.35500919 1.31129922 0 0 Z " fill="#BD782A" transform="translate(88,13)"/>
<path d="M0 0 C2.375 1.8125 2.375 1.8125 4 4 C7.01268728 7.22577835 7.01268728 7.22577835 11 9 C11.33 9.66 11.66 10.32 12 11 C12.99 11.66 13.98 12.32 15 13 C16.485 13.99 16.485 13.99 18 15 C18 15.66 18 16.32 18 17 C18.66 17 19.32 17 20 17 C21.625 19 21.625 19 23 21 C23.99 20.67 24.98 20.34 26 20 C28.00875442 20.27571139 30.01178687 20.60235737 32 21 C32 21.33 32 21.66 32 22 C28.58692163 23.56216819 25.76521223 24.31461342 22 24 C19.51156636 22.14307218 17.53455066 20.12245476 15.47290039 17.80981445 C11.70843774 13.60115967 7.68475044 10.20295634 3.125 6.875 C2.49440674 6.40231689 1.86381348 5.92963379 1.21411133 5.44262695 C-2.132048 3.02077666 -4.84885128 1.39459589 -9 1 C-12.06908859 7.00473855 -12.73297266 12.30075535 -13 19 C-13.03254883 19.65436035 -13.06509766 20.3087207 -13.09863281 20.98291016 C-13.64417542 33.00413449 -13.00188258 45.50882607 -7.78125 56.5859375 C-6.70752425 59.90375008 -7.42650927 61.99278243 -8.375 65.3125 C-8.67148438 66.38113281 -8.96796875 67.44976562 -9.2734375 68.55078125 C-9.51320313 69.35902344 -9.75296875 70.16726562 -10 71 C-10.33 71 -10.66 71 -11 71 C-11.33 68.03 -11.66 65.06 -12 62 C-11.01 61.505 -11.01 61.505 -10 61 C-10.144375 60.4225 -10.28875 59.845 -10.4375 59.25 C-10.77573751 57.89704994 -11.11027289 56.54315515 -11.4375 55.1875 C-12.22961175 52.10706542 -13.11850039 49.05586532 -14 46 C-14.66 46 -15.32 46 -16 46 C-16.0494731 40.66147206 -16.08575425 35.32307786 -16.10986328 29.984375 C-16.11991491 28.16859614 -16.13355828 26.35283344 -16.15087891 24.53710938 C-16.17516406 21.92574065 -16.18649148 19.31458613 -16.1953125 16.703125 C-16.20563507 15.89256653 -16.21595764 15.08200806 -16.22659302 14.24688721 C-16.22737091 10.33075844 -16.18989813 7.32098917 -14 4 C-13.67 3.278125 -13.34 2.55625 -13 1.8125 C-10.46381708 -2.78433153 -4.35350855 -0.91875992 0 0 Z M-15 8 C-14 11 -14 11 -14 11 Z " fill="#281E15" transform="translate(20,2)"/>
<path d="M0 0 C3.34365498 0.53194511 4.76887239 1.84080402 6.8125 4.50390625 C8.51694989 8.01933415 8.13056669 11.63183313 7.75 15.4375 C6.43 15.1075 5.11 14.7775 3.75 14.4375 C4.08 16.0875 4.41 17.7375 4.75 19.4375 C1.65832951 19.64829572 -0.67018118 19.67256168 -3.5625 18.5 C-6.23157975 15.23779141 -6.07788884 11.54235124 -6.25 7.4375 C-5.59 7.1075 -4.93 6.7775 -4.25 6.4375 C-3.26 6.7675 -2.27 7.0975 -1.25 7.4375 C-1.91 5.4575 -2.57 3.4775 -3.25 1.4375 C-2.25 0.4375 -2.25 0.4375 0 0 Z " fill="#101E41" transform="translate(42.25,51.5625)"/>
<path d="M0 0 C3.32342576 2.6009419 5.38403685 5.13169883 7 9 C7.265625 11.25390625 7.265625 11.25390625 7.25 13.5625 C7.25515625 14.32691406 7.2603125 15.09132813 7.265625 15.87890625 C7 18 7 18 5 21 C4.01 21 3.02 21 2 21 C1.67 19.35 1.34 17.7 1 16 C1.99 16 2.98 16 4 16 C4.43587443 10.23130973 4.43587443 10.23130973 2.3125 5 C0.15740951 2.75578565 0.15740951 2.75578565 -2.75 2.6875 C-3.4925 2.790625 -4.235 2.89375 -5 3 C-4.67 4.98 -4.34 6.96 -4 9 C-5.32 9 -6.64 9 -8 9 C-7.88541307 10.43836751 -7.75790884 11.87570966 -7.625 13.3125 C-7.55539063 14.11300781 -7.48578125 14.91351563 -7.4140625 15.73828125 C-7.10435574 18.27224441 -7.10435574 18.27224441 -5 21 C-10.46905941 20.39232673 -10.46905941 20.39232673 -12.67578125 18.76171875 C-15.23497567 15.35700877 -14.48583559 11.05510771 -14 7 C-11.23104025 0.67094914 -6.75317348 -1.3057894 0 0 Z " fill="#BEB8B2" transform="translate(45,50)"/>
<path d="M0 0 C1.65 0 3.3 0 5 0 C5 0.66 5 1.32 5 2 C4.360625 2.12375 3.72125 2.2475 3.0625 2.375 C2.381875 2.58125 1.70125 2.7875 1 3 C0.67 3.66 0.34 4.32 0 5 C0.66 5.66 1.32 6.32 2 7 C1.505 7.433125 1.01 7.86625 0.5 8.3125 C-1.33218192 9.99740483 -1.33218192 9.99740483 -1 13 C-1.886875 13.4125 -2.77375 13.825 -3.6875 14.25 C-8.52386716 16.80506189 -12.21976346 20.07975469 -16 24 C-15.625 21.5625 -15.625 21.5625 -15 19 C-14.34 18.67 -13.68 18.34 -13 18 C-13 17.01 -13 16.02 -13 15 C-13.70125 15.721875 -14.4025 16.44375 -15.125 17.1875 C-22.95982143 25 -22.95982143 25 -26 25 C-24.17322325 20.46284253 -20.99290081 18.60704586 -17.09375 15.87890625 C-14.71916643 13.74798331 -13.95042348 12.01139615 -13 9 C-12.01 9 -11.02 9 -10 9 C-9.67 8.01 -9.34 7.02 -9 6 C-8.34 6 -7.68 6 -7 6 C-6.34 5.01 -5.68 4.02 -5 3 C-3.67405895 2.63837971 -2.34061543 2.30271961 -1 2 C-0.67 1.34 -0.34 0.68 0 0 Z " fill="#EDB45D" transform="translate(105,1)"/>
<path d="M0 0 C0 2.64 0 5.28 0 8 C-2.31 8.33 -4.62 8.66 -7 9 C-6.67 10.32 -6.34 11.64 -6 13 C-6.67417969 12.67257813 -7.34835938 12.34515625 -8.04296875 12.0078125 C-11.61501454 10.79039135 -14.54711647 10.804619 -18.3125 10.875 C-19.56675781 10.89304687 -20.82101563 10.91109375 -22.11328125 10.9296875 C-23.54220703 10.96449219 -23.54220703 10.96449219 -25 11 C-21.78360346 9.25434889 -19.67986596 8.795563 -16 9 C-16 8.34 -16 7.68 -16 7 C-16.99 6.67 -17.98 6.34 -19 6 C-19 5.34 -19 4.68 -19 4 C-6.51480638 -0.59225513 -6.51480638 -0.59225513 0 0 Z " fill="#E99A47" transform="translate(111,70)"/>
<path d="M0 0 C0.33 0.66 0.66 1.32 1 2 C2.65 1.67 4.3 1.34 6 1 C6 1.66 6 2.32 6 3 C5.34 3 4.68 3 4 3 C3.566875 3.928125 3.566875 3.928125 3.125 4.875 C2 7 2 7 0 9 C0 9.99 0 10.98 0 12 C0.99 11.34 1.98 10.68 3 10 C6.1875 9.875 6.1875 9.875 9 10 C9.33 11.65 9.66 13.3 10 15 C9.16855469 15.39832031 9.16855469 15.39832031 8.3203125 15.8046875 C7.59585937 16.15789062 6.87140625 16.51109375 6.125 16.875 C5.40570313 17.22304687 4.68640625 17.57109375 3.9453125 17.9296875 C1.84864981 18.96557543 1.84864981 18.96557543 0 21 C-2.625 21.125 -2.625 21.125 -5 21 C-4.5547115 15.72684667 -3.91626837 10.98229776 -2 6 C-2.66 6 -3.32 6 -4 6 C-4 4.68 -4 3.36 -4 2 C-2.68 2 -1.36 2 0 2 C0 1.34 0 0.68 0 0 Z " fill="#EE9A3E" transform="translate(16,53)"/>
<path d="M0 0 C0.79921875 0.00902344 1.5984375 0.01804687 2.421875 0.02734375 C3.02515625 0.03894531 3.6284375 0.05054687 4.25 0.0625 C4.25 0.3925 4.25 0.7225 4.25 1.0625 C1.94 1.3925 -0.37 1.7225 -2.75 2.0625 C-3.08 3.3825 -3.41 4.7025 -3.75 6.0625 C-2.1 6.3925 -0.45 6.7225 1.25 7.0625 C1.58 9.0425 1.91 11.0225 2.25 13.0625 C-0.06 12.7325 -2.37 12.4025 -4.75 12.0625 C-3.43 13.3825 -2.11 14.7025 -0.75 16.0625 C-1.41 16.0625 -2.07 16.0625 -2.75 16.0625 C-2.42 17.0525 -2.09 18.0425 -1.75 19.0625 C-5.15040734 17.92903089 -6.28729252 16.59983498 -8.75 14.0625 C-10.06558703 13.03926564 -11.39377755 12.03123032 -12.75 11.0625 C-11.76 9.7425 -10.77 8.4225 -9.75 7.0625 C-10.08 7.3925 -10.41 7.7225 -10.75 8.0625 C-11.08 7.0725 -11.41 6.0825 -11.75 5.0625 C-10.42644333 2.69403016 -9.54856524 1.3321231 -6.93359375 0.44921875 C-4.57405763 0.03134026 -2.39462029 -0.035215 0 0 Z " fill="#EFD9A7" transform="translate(104.75,19.9375)"/>
<path d="M0 0 C2.75329021 1.79562405 4.52627461 3.05254922 6 6 C6.54721058 10.56606865 6.59839248 13.97418431 4.25 18 C2.04691751 19.95829554 0.89094238 20.69025617 -2 21 C-1.67 19.989375 -1.34 18.97875 -1 17.9375 C0.05617882 14.21824173 0.29829077 10.87778006 0 7 C-0.66 6.01 -1.32 5.02 -2 4 C-5.08365871 3.7497843 -5.08365871 3.7497843 -8 4 C-7.67 5.32 -7.34 6.64 -7 8 C-8.98 8.99 -8.98 8.99 -11 10 C-11.31785906 6.50355037 -11.39644605 4.602598 -9.4375 1.625 C-6.05010319 -0.63326454 -3.9982841 -0.56116268 0 0 Z " fill="#EAEAD4" transform="translate(90,49)"/>
<path d="M0 0 C0.33 0 0.66 0 1 0 C2.05466451 4.3462384 2.21736935 8.61249512 2.25 13.0625 C2.270625 13.76955078 2.29125 14.47660156 2.3125 15.20507812 C2.33733058 18.51064962 2.21959362 20.63834969 0.484375 23.49609375 C-0.00546875 23.99238281 -0.4953125 24.48867187 -1 25 C-3.52588702 22.63707344 -4.88820837 21.33537489 -6 18 C-6.66 17.34 -7.32 16.68 -8 16 C-5.03 16 -2.06 16 1 16 C1 13.36 1 10.72 1 8 C-1.23031689 8.45270302 -3.45921563 8.91239626 -5.6875 9.375 C-6.92886719 9.63023438 -8.17023438 9.88546875 -9.44921875 10.1484375 C-12.91849653 10.87412209 -12.91849653 10.87412209 -15.70703125 12.1640625 C-18 13 -18 13 -22 12 C-16.72 10.02 -11.44 8.04 -6 6 C-6.99 4.68 -7.98 3.36 -9 2 C-8 1 -8 1 -5.625 0.8125 C-3 1 -3 1 0 3 C0 2.01 0 1.02 0 0 Z " fill="#BE8246" transform="translate(110,62)"/>
<path d="M0 0 C0.99 0.33 1.98 0.66 3 1 C3.06058594 1.88300781 3.12117188 2.76601563 3.18359375 3.67578125 C3.35780729 6.17105525 3.53917203 8.6658372 3.7265625 11.16015625 C3.89610986 13.54108558 4.04145607 15.92403388 4.1484375 18.30859375 C4.22964844 19.76458984 4.22964844 19.76458984 4.3125 21.25 C4.34988281 22.12140625 4.38726562 22.9928125 4.42578125 23.890625 C4.78160075 26.17388756 4.78160075 26.17388756 6.91796875 27.109375 C7.94857422 27.55023438 7.94857422 27.55023438 9 28 C11 31 11 31 11 35 C6.71 35 2.42 35 -2 35 C-1.51144531 34.16726562 -1.02289063 33.33453125 -0.51953125 32.4765625 C1.22643801 28.48192845 1.36818304 25.71827701 1.3125 21.375 C1.30484619 20.68075928 1.29719238 19.98651855 1.28930664 19.27124023 C1.16799502 13.7958748 0.44514698 8.5277399 -0.66015625 3.16015625 C-0.77230469 2.44730469 -0.88445312 1.73445313 -1 1 C-0.67 0.67 -0.34 0.34 0 0 Z " fill="#322523" transform="translate(110,54)"/>
<path d="M0 0 C0.99 0.99 1.98 1.98 3 3 C1.1851982 7.89996485 -2.91654724 10.94828902 -7.4453125 13.234375 C-11.23604413 15.85426903 -12.92252721 19.56331308 -15.04882812 23.52539062 C-16.03515625 25.26171875 -16.03515625 25.26171875 -18 28 C-19.32 28 -20.64 28 -22 28 C-22.33 28.99 -22.66 29.98 -23 31 C-23.66 28.03 -24.32 25.06 -25 22 C-21 23 -21 23 -19 25 C-16.97507046 19.50525153 -16.97507046 19.50525153 -18 14 C-18.66 13.67 -19.32 13.34 -20 13 C-15.25 9 -15.25 9 -13 9 C-13 9.66 -13 10.32 -13 11 C-13.66 11 -14.32 11 -15 11 C-14.67 12.98 -14.34 14.96 -14 17 C-13.525625 16.154375 -13.05125 15.30875 -12.5625 14.4375 C-9.64069285 10.01787113 -5.40083049 6.87158437 -1 4 C-0.34 4 0.32 4 1 4 C0.67 2.68 0.34 1.36 0 0 Z " fill="#BB8949" transform="translate(34,27)"/>
<path d="M0 0 C0.12375 0.7734375 0.12375 0.7734375 0.25 1.5625 C0.95518026 4.24792691 0.95518026 4.24792691 3.0625 7.1875 C5.58241488 11.3721962 5.38819177 15.2446508 5 20 C1.7013949 16.34797293 -0.19008141 12.66662408 -2.0703125 8.18359375 C-2.96800266 6.07515341 -3.95514805 4.03884827 -5 2 C-5.66 2 -6.32 2 -7 2 C-6.5875 2.969375 -6.175 3.93875 -5.75 4.9375 C-5.481875 5.57042969 -5.21375 6.20335937 -4.9375 6.85546875 C-4.27561497 8.36953075 -3.58523726 9.87128978 -2.875 11.36328125 C-2.318125 12.54470703 -2.318125 12.54470703 -1.75 13.75 C-1.39421875 14.48734375 -1.0384375 15.2246875 -0.671875 15.984375 C0 18 0 18 -1 21 C-1.98006859 19.37554381 -2.95902636 17.75041739 -3.9375 16.125 C-4.48277344 15.22007813 -5.02804688 14.31515625 -5.58984375 13.3828125 C-7.83497781 9.58909566 -8.09630919 7.43022254 -8 3 C-8.99 3 -9.98 3 -11 3 C-10 1 -10 1 -8.3125 0.375 C-5.51555886 -0.07855802 -2.82858003 -0.06428591 0 0 Z " fill="#DF8F38" transform="translate(52,24)"/>
<path d="M0 0 C0.99 0.33 1.98 0.66 3 1 C1.35549209 2.69434148 -0.30962167 4.35220047 -2 6 C-2.54269531 6.55042969 -3.08539063 7.10085937 -3.64453125 7.66796875 C-6.90973866 10.77102139 -8.29520372 11.93287655 -12.9375 12.375 C-13.948125 12.25125 -14.95875 12.1275 -16 12 C-15.95875 13.27875 -15.9175 14.5575 -15.875 15.875 C-15.85842217 21.08872856 -16.81688642 25.94007672 -18 31 C-18.33 31 -18.66 31 -19 31 C-19.13277344 29.90300781 -19.26554687 28.80601563 -19.40234375 27.67578125 C-19.58062985 26.22134199 -19.7590208 24.76691558 -19.9375 23.3125 C-20.02451172 22.59126953 -20.11152344 21.87003906 -20.20117188 21.12695312 C-20.28818359 20.42119141 -20.37519531 19.71542969 -20.46484375 18.98828125 C-20.58267212 18.02208862 -20.58267212 18.02208862 -20.70288086 17.03637695 C-21.04721713 14.6763861 -21.53226716 12.33866421 -22 10 C-17.38 9.67 -12.76 9.34 -8 9 C-8 8.01 -8 7.02 -8 6 C-7.01 6 -6.02 6 -5 6 C-4.67 5.34 -4.34 4.68 -4 4 C-2.68671343 2.64691687 -1.35500919 1.31129922 0 0 Z " fill="#DA913F" transform="translate(88,13)"/>
<path d="M0 0 C1.010625 0.0825 2.02125 0.165 3.0625 0.25 C5.55086965 3.98255448 5.60476552 5.83440935 5.0625 10.25 C2.8125 12.75 2.8125 12.75 0.0625 14.25 C-2.58341084 14.17217909 -3.62053072 13.49904729 -5.6875 11.875 C-6.9375 10.25 -6.9375 10.25 -6.9375 7.25 C-5.6175 6.59 -4.2975 5.93 -2.9375 5.25 C-3.2159375 4.2909375 -3.2159375 4.2909375 -3.5 3.3125 C-3.644375 2.631875 -3.78875 1.95125 -3.9375 1.25 C-2.9375 0.25 -2.9375 0.25 0 0 Z " fill="#0D163A" transform="translate(84.9375,51.75)"/>
<path d="M0 0 C0 4.24645065 -1.81750806 6.38524772 -4 10 C-3.01 10 -2.02 10 -1 10 C-0.67 10.99 -0.34 11.98 0 13 C1.96722008 14.38123963 3.96868328 15.71488126 6 17 C6.66 17.66 7.32 18.32 8 19 C8.43386092 15.12202338 8.43386092 15.12202338 6.5 13.25 C5.7575 12.63125 5.7575 12.63125 5 12 C7.9375 12.375 7.9375 12.375 11 13 C12.3729863 15.7459726 12.12412634 17.9589047 12 21 C11.67 21.99 11.34 22.98 11 24 C11.66 24.99 12.32 25.98 13 27 C13 27.99 13 28.98 13 30 C13.66 30 14.32 30 15 30 C14.67 30.99 14.34 31.98 14 33 C11.96345705 30.96345705 11.13477403 29.37169131 9.875 26.8125 C6.60984992 20.82317145 2.16193314 16.51509296 -4 13.5625 C-4.66 13.376875 -5.32 13.19125 -6 13 C-6.3125 9.8125 -6.3125 9.8125 -6 6 C-3.5625 3.125 -3.5625 3.125 -1 1 C-0.67 0.67 -0.34 0.34 0 0 Z " fill="#BC895A" transform="translate(94,19)"/>
<path d="M0 0 C3.3 1.65 6.6 3.3 10 5 C9.67 6.32 9.34 7.64 9 9 C3.39 9 -2.22 9 -8 9 C-7.67 8.01 -7.34 7.02 -7 6 C-9.31 5.67 -11.62 5.34 -14 5 C-14 4.67 -14 4.34 -14 4 C-7.07 4.495 -7.07 4.495 0 5 C0 3.35 0 1.7 0 0 Z " fill="#E7C686" transform="translate(99,80)"/>
<path d="M0 0 C0 0.33 0 0.66 0 1 C-2.85399683 1.48019629 -5.70818766 1.95918577 -8.5625 2.4375 C-9.76229492 2.63956055 -9.76229492 2.63956055 -10.98632812 2.84570312 C-15.65038214 3.62621829 -20.31561302 4.35235992 -25 5 C-24.9375 3.25 -24.9375 3.25 -24 1 C-15.78263005 -4.91650636 -9.10591745 -3.0780566 0 0 Z " fill="#F5E5AC" transform="translate(46,79)"/>
<path d="M0 0 C9.00280692 1.12134606 16.02545874 9.66936025 22 16 C20.68 16.33 19.36 16.66 18 17 C18 16.01 18 15.02 18 14 C17.01 14.495 17.01 14.495 16 15 C15.34444881 17.52733235 15.34444881 17.52733235 15 20 C14.01 19.67 13.02 19.34 12 19 C12.12375 18.31421875 12.2475 17.6284375 12.375 16.921875 C11.80525166 12.48258589 9.07759388 10.3345254 6 7.25 C0 1.07432432 0 1.07432432 0 0 Z " fill="#E8AA53" transform="translate(19,8)"/>
<path d="M0 0 C0.33 0 0.66 0 1 0 C2.66666667 5 4.33333333 10 6 15 C1.38 15 -3.24 15 -8 15 C-7 11 -7 11 -5 8 C-4.319375 7.731875 -3.63875 7.46375 -2.9375 7.1875 C-0.63171522 6.08838835 -0.63171522 6.08838835 -0.25 2.875 C-0.1675 1.92625 -0.085 0.9775 0 0 Z " fill="#373441" transform="translate(8,74)"/>
<path d="M0 0 C1.65 0 3.3 0 5 0 C4.01 1.65 3.02 3.3 2 5 C2.99 6.485 2.99 6.485 4 8 C3.09507813 8.19916016 3.09507813 8.19916016 2.171875 8.40234375 C0.97304687 8.66724609 0.97304687 8.66724609 -0.25 8.9375 C-1.03890625 9.11152344 -1.8278125 9.28554688 -2.640625 9.46484375 C-3.80851562 9.72974609 -3.80851562 9.72974609 -5 10 C-5.7321875 10.144375 -6.464375 10.28875 -7.21875 10.4375 C-9.2219354 10.85479564 -9.2219354 10.85479564 -10.25 13.0625 C-10.4975 13.701875 -10.745 14.34125 -11 15 C-10.34 15.33 -9.68 15.66 -9 16 C-9 16.66 -9 17.32 -9 18 C-12 19 -12 19 -15 18 C-13.05772909 11.78473309 -9.35752323 6.33444711 -3.6875 3.125 C-2.800625 2.75375 -1.91375 2.3825 -1 2 C-0.67 1.34 -0.34 0.68 0 0 Z " fill="#CCAA8E" transform="translate(105,11)"/>
<path d="M0 0 C0.33 0 0.66 0 1 0 C2.13764351 4.26616316 3 7.56486311 3 12 C3.66 12 4.32 12 5 12 C4.125 15.875 4.125 15.875 3 17 C0.64686445 17.07271741 -1.70833668 17.08370868 -4.0625 17.0625 C-5.35285156 17.05347656 -6.64320312 17.04445313 -7.97265625 17.03515625 C-8.97167969 17.02355469 -9.97070312 17.01195313 -11 17 C-7.48487252 13.08314366 -6.37985925 12.07597185 -1 11 C-0.67 7.37 -0.34 3.74 0 0 Z " fill="#EFAE52" transform="translate(27,57)"/>
<path d="M0 0 C1.27230469 0.01804688 2.54460938 0.03609375 3.85546875 0.0546875 C5.31919922 0.08949219 5.31919922 0.08949219 6.8125 0.125 C7.01166016 1.32189453 7.01166016 1.32189453 7.21484375 2.54296875 C7.55097017 5.17223182 7.55097017 5.17223182 9.375 6.4375 C11.80571286 9.29094554 10.99122717 12.4908808 10.8125 16.125 C12.1325 16.125 13.4525 16.125 14.8125 16.125 C14.8125 15.465 14.8125 14.805 14.8125 14.125 C19.1025 14.125 23.3925 14.125 27.8125 14.125 C27.8125 14.455 27.8125 14.785 27.8125 15.125 C27.01585937 15.23457031 26.21921875 15.34414062 25.3984375 15.45703125 C19.62051301 16.32161119 14.97871213 17.26998803 9.8125 20.125 C9.1525 19.795 8.4925 19.465 7.8125 19.125 C7.84730469 18.54492188 7.88210937 17.96484375 7.91796875 17.3671875 C8.09863448 12.15369081 7.77368683 8.62161704 4.8125 4.125 C1.1175673 1.66171154 -1.89834582 1.43033473 -6.1875 2.125 C-8.49346521 3.24157263 -10.16752917 4.50902333 -12.1875 6.125 C-9.55790225 0.0566975 -6.24824294 -0.11464666 0 0 Z " fill="#DBA857" transform="translate(43.1875,48.875)"/>
<path d="M0 0 C0.625 1.8125 0.625 1.8125 1 4 C0.01 5.485 0.01 5.485 -1 7 C0.953125 6.96744792 2.90625 6.93489583 4.859375 6.90234375 C7.13951967 7.00636495 8.87086243 7.15794354 11 8 C14.19170071 11.91403297 15.88269925 15.94429329 16.4375 20.9375 C16 24 16 24 14 26 C13.98582031 25.33613281 13.97164062 24.67226563 13.95703125 23.98828125 C13.71288629 19.46830017 13.46526362 16.68421121 10.875 12.875 C7.29607238 10.54091677 5.19987818 10.61112239 1 11 C0.01 11 -0.98 11 -2 11 C-1.67 10.34 -1.34 9.68 -1 9 C-2.65 9.33 -4.3 9.66 -6 10 C-4.6302836 6.00499382 -2.74277578 3.19990508 0 0 Z " fill="#916A3A" transform="translate(82,39)"/>
<path d="M0 0 C4.14639331 1.36750538 6.54080813 3.18570581 9.5625 6.3125 C10.3359375 7.11171875 11.109375 7.9109375 11.90625 8.734375 C14.06378755 11.06902385 16.10518385 13.44611737 18 16 C17.67 16.66 17.34 17.32 17 18 C16.44570313 17.4946875 15.89140625 16.989375 15.3203125 16.46875 C14.59585937 15.8190625 13.87140625 15.169375 13.125 14.5 C12.40570313 13.8503125 11.68640625 13.200625 10.9453125 12.53125 C9.15068902 10.79382728 9.15068902 10.79382728 7 11 C7.99 11.66 8.98 12.32 10 13 C9.67 13.66 9.34 14.32 9 15 C7.68 15 6.36 15 5 15 C5.99 15.99 6.98 16.98 8 18 C6.68 18 5.36 18 4 18 C4 17.34 4 16.68 4 16 C2.68 15.67 1.36 15.34 0 15 C0 14.34 0 13.68 0 13 C1.65 12.67 3.3 12.34 5 12 C3.68 10.02 2.36 8.04 1 6 C2.65 6.33 4.3 6.66 6 7 C5.195625 6.21625 4.39125 5.4325 3.5625 4.625 C1 2 1 2 0 0 Z " fill="#B58966" transform="translate(14,6)"/>
<path d="M0 0 C1.65 0 3.3 0 5 0 C5 0.66 5 1.32 5 2 C4.360625 2.12375 3.72125 2.2475 3.0625 2.375 C2.381875 2.58125 1.70125 2.7875 1 3 C0.67 3.66 0.34 4.32 0 5 C0.66 5.66 1.32 6.32 2 7 C1.505 7.433125 1.01 7.86625 0.5 8.3125 C-1.33218192 9.99740483 -1.33218192 9.99740483 -1 13 C-1.928125 13.45375 -2.85625 13.9075 -3.8125 14.375 C-7.03921389 15.9421633 -7.03921389 15.9421633 -10 18 C-8.33248852 14.05860922 -5.77289351 11.2107188 -3 8 C-6.87132028 8.57352893 -9.08172796 10.48704352 -12 13 C-12.66 12.67 -13.32 12.34 -14 12 C-13.67 11.01 -13.34 10.02 -13 9 C-12.01 9 -11.02 9 -10 9 C-9.67 8.01 -9.34 7.02 -9 6 C-8.34 6 -7.68 6 -7 6 C-6.34 5.01 -5.68 4.02 -5 3 C-3.67405895 2.63837971 -2.34061543 2.30271961 -1 2 C-0.67 1.34 -0.34 0.68 0 0 Z " fill="#A07852" transform="translate(105,1)"/>
<path d="M0 0 C3.51947072 1.00556306 5.40006895 2.24245062 7.625 5.0625 C9.73408995 8.2107551 9.73408995 8.2107551 13 9 C13.33 9.66 13.66 10.32 14 11 C14.99 11.66 15.98 12.32 17 13 C17.99 13.66 18.98 14.32 20 15 C20 15.66 20 16.32 20 17 C20.66 17 21.32 17 22 17 C23.625 19 23.625 19 25 21 C25.99 20.67 26.98 20.34 28 20 C30.00875442 20.27571139 32.01178687 20.60235737 34 21 C34 21.33 34 21.66 34 22 C30.58525648 23.56293033 27.7668827 24.31896991 24 24 C20.9097233 21.71410415 18.49185003 19.03401434 15.9609375 16.171875 C12.46102727 12.24795101 8.3393536 9.28731249 4.06323242 6.26269531 C2.65877686 5.24057444 1.32209992 4.12662251 0 3 C0 2.01 0 1.02 0 0 Z " fill="#625028" transform="translate(18,2)"/>
<path d="M0 0 C0.33 0.66 0.66 1.32 1 2 C0.67 2.66 0.34 3.32 0 4 C-0.37937519 9.69062784 -0.00974609 12.98375652 3 18 C-2.47146402 17.39205955 -2.47146402 17.39205955 -4.6640625 15.765625 C-6.89692721 12.81458743 -6.5824046 9.97147691 -6.50390625 6.38671875 C-6 4 -6 4 -3 1.375 C-2.01 0.92125 -1.02 0.4675 0 0 Z " fill="#F0EDD8" transform="translate(37,53)"/>
<path d="M0 0 C-3.08809695 1.76462683 -4.23312136 2 -8 2 C-8 2.66 -8 3.32 -8 4 C-7.34 4 -6.68 4 -6 4 C-6 5.32 -6 6.64 -6 8 C-6.66 8 -7.32 8 -8 8 C-8.268125 8.598125 -8.53625 9.19625 -8.8125 9.8125 C-9.98493467 11.97224808 -11.19369282 13.35790256 -13 15 C-14.125 10.25 -14.125 10.25 -13 8 C-12.34 8 -11.68 8 -11 8 C-11 7.34 -11 6.68 -11 6 C-12.65 6.66 -14.3 7.32 -16 8 C-14.09085712 3.7411428 -12.45973974 1.63466945 -8.125 -0.25 C-4.91780163 -1.01972761 -3.12604316 -0.91942446 0 0 Z " fill="#F3DCAC" transform="translate(32,30)"/>
<path d="M0 0 C0.33 0 0.66 0 1 0 C1.17760064 4.52881629 1.09143803 7.93331494 -1 12 C-3 14 -3 14 -6.5 14.3125 C-8.2325 14.1578125 -8.2325 14.1578125 -10 14 C-12.1519437 10.77208445 -12.20086443 9.71599191 -12 6 C-9 7 -9 7 -8 9 C-5.07120629 8.37240135 -2.63904371 7.41377341 0 6 C0 4.02 0 2.04 0 0 Z " fill="#5C84B3" transform="translate(90,56)"/>
<path d="M0 0 C1.9375 0.625 1.9375 0.625 4 2 C4.75 5.125 4.75 5.125 5 8 C6.32 8 7.64 8 9 8 C9.33 9.65 9.66 11.3 10 13 C6.90832951 13.21079572 4.57981882 13.23506168 1.6875 12.0625 C-0.94942655 8.83958977 -1.04071342 5.08762717 -1 1 C-0.67 0.67 -0.34 0.34 0 0 Z " fill="#5073A8" transform="translate(37,58)"/>
<path d="M0 0 C1.65 0 3.3 0 5 0 C5.80866672 3.47699463 6.07549313 6.52162444 5.87890625 10.08203125 C5.83056641 11.01337891 5.78222656 11.94472656 5.73242188 12.90429688 C5.67634766 13.86400391 5.62027344 14.82371094 5.5625 15.8125 C5.51029297 16.79154297 5.45808594 17.77058594 5.40429688 18.77929688 C5.27512661 21.1865609 5.14018357 23.59335638 5 26 C4.67 26 4.34 26 4 26 C3.67 18.74 3.34 11.48 3 4 C1.35 4.66 -0.3 5.32 -2 6 C-4.3125 5.625 -4.3125 5.625 -6 5 C-5.34 4.01 -4.68 3.02 -4 2 C-2.68 2 -1.36 2 0 2 C0 1.34 0 0.68 0 0 Z " fill="#E3AC93" transform="translate(110,1)"/>
<path d="M0 0 C0 2.31 0 4.62 0 7 C-4.17645661 7.34803805 -5.82586157 6.66218062 -9 4 C-10.31836295 3.30419733 -11.64791086 2.62775567 -13 2 C-8.49646738 0.24252386 -4.82360189 -0.19294408 0 0 Z " fill="#F5B255" transform="translate(111,70)"/>
<path d="M0 0 C1.010625 0.0825 2.02125 0.165 3.0625 0.25 C5.4919516 3.8941774 5.22429575 5.96241272 5.0625 10.25 C3.0825 11.24 3.0825 11.24 1.0625 12.25 C1.0625 9.94 1.0625 7.63 1.0625 5.25 C0.4025 5.25 -0.2575 5.25 -0.9375 5.25 C-2.5625 3.25 -2.5625 3.25 -3.9375 1.25 C-2.9375 0.25 -2.9375 0.25 0 0 Z " fill="#273C73" transform="translate(84.9375,51.75)"/>
<path d="M0 0 C4.50333398 0.38600006 7.42324447 2.33822844 11 5 C11 5.33 11 5.66 11 6 C6.91281305 6.24042276 3.82320557 5.42258812 0 4 C-0.66 6.97 -1.32 9.94 -2 13 C-2.33 13 -2.66 13 -3 13 C-3.17791204 8.46324303 -3.0461125 5.092225 -1 1 C-0.67 0.67 -0.34 0.34 0 0 Z " fill="#D8A767" transform="translate(11,2)"/>
<path d="M0 0 C0.33 0 0.66 0 1 0 C1.06058594 0.75925781 1.12117188 1.51851562 1.18359375 2.30078125 C1.26738281 3.29464844 1.35117188 4.28851563 1.4375 5.3125 C1.51871094 6.29863281 1.59992188 7.28476562 1.68359375 8.30078125 C1.91812559 11.09375599 1.91812559 11.09375599 3 14 C-1.03520597 12.41037341 -5.01811282 10.71767682 -9 9 C-9 8.67 -9 8.34 -9 8 C-7.6078125 7.9690625 -7.6078125 7.9690625 -6.1875 7.9375 C-2.99303786 7.37155641 -2.99303786 7.37155641 -1.93359375 5.375 C-1.20025229 3.61781467 -0.59224075 1.80962451 0 0 Z " fill="#D5BF95" transform="translate(77,56)"/>
<path d="M0 0 C3.96 0 7.92 0 12 0 C8 3 8 3 6 3 C5.67 3.99 5.34 4.98 5 6 C2.4375 7.1875 2.4375 7.1875 0 8 C0 5.36 0 2.72 0 0 Z " fill="#ED9E43" transform="translate(11,75)"/>
<path d="M0 0 C0.33 0 0.66 0 1 0 C2.66666667 5 4.33333333 10 6 15 C3.69 15 1.38 15 -1 15 C-0.34 14.34 0.32 13.68 1 13 C1.64767793 10.42938689 1.64767793 10.42938689 2 8 C-0.64 8.99 -3.28 9.98 -6 11 C-5.67 10.01 -5.34 9.02 -5 8 C-4.34 7.731875 -3.68 7.46375 -3 7.1875 C-2.01 6.5996875 -2.01 6.5996875 -1 6 C-0.18415432 2.94091587 -0.18415432 2.94091587 0 0 Z " fill="#1B1113" transform="translate(8,74)"/>
<path d="M0 0 C0.33 0 0.66 0 1 0 C1 2.31 1 4.62 1 7 C-1.75 7.3125 -1.75 7.3125 -5 7 C-7.375 4.5 -7.375 4.5 -9 2 C-8 1 -8 1 -5.625 0.8125 C-3 1 -3 1 0 3 C0 2.01 0 1.02 0 0 Z " fill="#E29444" transform="translate(110,62)"/>
<path d="M0 0 C1.11833764 4.47335054 0.71304967 5.00288411 -1 9 C-1.37593066 10.9924325 -1.71979545 12.9918674 -2 15 C-0.68 15.33 0.64 15.66 2 16 C0.68 16 -0.64 16 -2 16 C-2 17.98 -2 19.96 -2 22 C-4.62451617 19.37548383 -4.5832868 17.5122172 -5.125 13.875 C-5.29257813 12.77929688 -5.46015625 11.68359375 -5.6328125 10.5546875 C-5.75398437 9.71164063 -5.87515625 8.86859375 -6 8 C-5.34 8.66 -4.68 9.32 -4 10 C-2.68 6.7 -1.36 3.4 0 0 Z " fill="#9A6639" transform="translate(13,59)"/>
<path d="M0 0 C1.4540625 0.0309375 1.4540625 0.0309375 2.9375 0.0625 C2.6075 1.0525 2.2775 2.0425 1.9375 3.0625 C2.33147335 5.70054589 2.33147335 5.70054589 2.9375 8.0625 C1.2875 8.0625 -0.3625 8.0625 -2.0625 8.0625 C-1.7325 6.4125 -1.4025 4.7625 -1.0625 3.0625 C-1.7225 3.7225 -2.3825 4.3825 -3.0625 5.0625 C-4.0525 5.0625 -5.0425 5.0625 -6.0625 5.0625 C-3.64893617 0.07446809 -3.64893617 0.07446809 0 0 Z " fill="#CBCCC4" transform="translate(38.0625,50.9375)"/>
<path d="M0 0 C0.99 0.33 1.98 0.66 3 1 C1.35556924 2.694262 -0.31183598 4.3501067 -2 6 C-2.54269531 6.56203125 -3.08539063 7.1240625 -3.64453125 7.703125 C-5.37091122 9.37104967 -6.93230067 10.77599194 -9 12 C-12.9375 11.875 -12.9375 11.875 -16 11 C-12.91190305 9.23537317 -11.76687864 9 -8 9 C-8 8.01 -8 7.02 -8 6 C-7.01 6 -6.02 6 -5 6 C-4.67 5.34 -4.34 4.68 -4 4 C-2.68671343 2.64691687 -1.35500919 1.31129922 0 0 Z " fill="#504629" transform="translate(88,13)"/>
<path d="M0 0 C5.41538462 -0.36923077 5.41538462 -0.36923077 8.375 1.5 C8.91125 1.995 9.4475 2.49 10 3 C9.67 3.99 9.34 4.98 9 6 C8.48953125 5.67257813 7.9790625 5.34515625 7.453125 5.0078125 C4.13227963 3.64351616 1.32627432 3.8087727 -2.25 3.875 C-3.51328125 3.89304687 -4.7765625 3.91109375 -6.078125 3.9296875 C-7.04234375 3.95289062 -8.0065625 3.97609375 -9 4 C-5.78360346 2.25434889 -3.67986596 1.795563 0 2 C0 1.34 0 0.68 0 0 Z " fill="#DFA359" transform="translate(95,77)"/>
<path d="M0 0 C1.875 0.25 1.875 0.25 4 1 C6.35535899 4.17973464 6.17494335 7.15124621 6 11 C5.34 11 4.68 11 4 11 C2.67578125 9.35546875 2.67578125 9.35546875 1.3125 7.1875 C0.85488281 6.47980469 0.39726563 5.77210937 -0.07421875 5.04296875 C-1 3 -1 3 0 0 Z " fill="#F8B352" transform="translate(52,24)"/>
<path d="M0 0 C3.51947072 1.00556306 5.40006895 2.24245062 7.625 5.0625 C9.73408995 8.2107551 9.73408995 8.2107551 13 9 C13.33 9.66 13.66 10.32 14 11 C14.99 11.66 15.98 12.32 17 13 C11.79996897 12.55251959 9.09868714 10.95255915 5.125 7.625 C4.15820312 6.83351563 3.19140625 6.04203125 2.1953125 5.2265625 C0 3 0 3 0 0 Z " fill="#5B4838" transform="translate(18,2)"/>
<path d="M0 0 C2.97 0 5.94 0 9 0 C9 1.32 9 2.64 9 4 C6.1875 4.625 6.1875 4.625 3 5 C2.01 4.34 1.02 3.68 0 3 C0 2.01 0 1.02 0 0 Z " fill="#BB928C" transform="translate(62,68)"/>
<path d="M0 0 C0.33 0.66 0.66 1.32 1 2 C0.22265625 3.7265625 0.22265625 3.7265625 -0.9375 5.625 C-1.618125 6.73875 -2.29875 7.8525 -3 9 C-4.32 9 -5.64 9 -7 9 C-7.33 9.99 -7.66 10.98 -8 12 C-8.66 9.03 -9.32 6.06 -10 3 C-6 4 -6 4 -4 6 C-3.566875 4.7934375 -3.566875 4.7934375 -3.125 3.5625 C-2 1 -2 1 0 0 Z " fill="#BE834E" transform="translate(19,46)"/>
<path d="M0 0 C1.27230469 0.01804688 2.54460938 0.03609375 3.85546875 0.0546875 C5.31919922 0.08949219 5.31919922 0.08949219 6.8125 0.125 C6.96589844 0.90230469 7.11929688 1.67960937 7.27734375 2.48046875 C7.72978582 4.71625912 8.24019881 6.91755257 8.8125 9.125 C7.12761464 7.44011464 5.58533675 5.83052913 4.125 3.9375 C1.3627201 1.77246981 -0.67166223 1.56249044 -4.1484375 1.71875 C-7.49614384 2.38572598 -9.54258968 4.00907174 -12.1875 6.125 C-9.55790225 0.0566975 -6.24824294 -0.11464666 0 0 Z " fill="#594327" transform="translate(43.1875,48.875)"/>
<path d="M0 0 C5.40489519 1.52012677 8.98492628 5.27385218 13 9 C12.67 9.99 12.34 10.98 12 12 C8.34683329 10.75023244 7.21934164 10.32901247 5 7 C5 6.01 5 5.02 5 4 C4.360625 3.71125 3.72125 3.4225 3.0625 3.125 C1 2 1 2 0 0 Z " fill="#E5C399" transform="translate(19,15)"/>
<path d="M0 0 C0.99 0.33 1.98 0.66 3 1 C2.52450066 3.62571335 2.04477433 6.2505304 1.5625 8.875 C1.42779297 9.62136719 1.29308594 10.36773437 1.15429688 11.13671875 C0.11328125 16.7734375 0.11328125 16.7734375 -1 19 C-1.66 19 -2.32 19 -3 19 C-2.13329546 12.64416673 -1.06965872 6.32448699 0 0 Z " fill="#E39336" transform="translate(76,25)"/>
<path d="M0 0 C4.51020195 0.38658874 7.38429295 2.39332748 11 5 C10.01 5.495 10.01 5.495 9 6 C9.33 6.99 9.66 7.98 10 9 C6.59959266 7.86653089 5.46270748 6.53733498 3 4 C1.68441297 2.97676564 0.35622245 1.96873032 -1 1 C-0.67 0.67 -0.34 0.34 0 0 Z " fill="#E9D2AB" transform="translate(93,30)"/>
<path d="M0 0 C2.125 0.9375 2.125 0.9375 4 2 C4 2.66 4 3.32 4 4 C2.03125 5.5078125 2.03125 5.5078125 -0.5 7.125 C-1.3353125 7.66382813 -2.170625 8.20265625 -3.03125 8.7578125 C-3.6809375 9.16773438 -4.330625 9.57765625 -5 10 C-5 9.01 -5 8.02 -5 7 C-5.66 7 -6.32 7 -7 7 C-7 6.34 -7 5.68 -7 5 C-5.02 4.34 -3.04 3.68 -1 3 C-1.33 2.34 -1.66 1.68 -2 1 C-1.34 0.67 -0.68 0.34 0 0 Z " fill="#E3BC9A" transform="translate(31,27)"/>
<path d="M0 0 C0 0.66 0 1.32 0 2 C-4.62 2 -9.24 2 -14 2 C-14 1.34 -14 0.68 -14 0 C-8.48727081 -1.71084699 -5.46809845 -2.4606443 0 0 Z " fill="#F5CD84" transform="translate(29,87)"/>
<path d="M0 0 C0.66 0 1.32 0 2 0 C3.03290841 1.93108963 4.05098672 3.870118 5.0625 5.8125 C5.63097656 6.89144531 6.19945312 7.97039063 6.78515625 9.08203125 C8 12 8 12 7 15 C6.0115904 13.44333045 5.03464918 11.87937574 4.0625 10.3125 C3.51722656 9.44238281 2.97195312 8.57226562 2.41015625 7.67578125 C1.02832828 5.05375311 0.41519827 2.91689925 0 0 Z " fill="#E99535" transform="translate(44,30)"/>
<path d="M0 0 C4.62 0 9.24 0 14 0 C14 1.65 14 3.3 14 5 C13.01 5 12.02 5 11 5 C11 4.34 11 3.68 11 3 C9.68 3 8.36 3 7 3 C4.66365343 2.68848712 2.32961443 2.35840222 0 2 C0 1.34 0 0.68 0 0 Z " fill="#F1DA9F" transform="translate(85,80)"/>
<path d="M0 0 C0.93065133 2.60582371 1.14917407 3.64198224 0.0625 6.25 C-0.4634375 7.11625 -0.4634375 7.11625 -1 8 C-1.33 7.67 -1.66 7.34 -2 7 C-2.66 8.65 -3.32 10.3 -4 12 C-4.33 12 -4.66 12 -5 12 C-5.30192308 4.15 -5.30192308 4.15 -3 1 C-2.01 0.67 -1.02 0.34 0 0 Z " fill="#BE9962" transform="translate(79,51)"/>
<path d="M0 0 C2.64 0.66 5.28 1.32 8 2 C8 4.31 8 6.62 8 9 C7.01 8.67 6.02 8.34 5 8 C5 7.34 5 6.68 5 6 C4.34 6 3.68 6 3 6 C2.01 4.02 1.02 2.04 0 0 Z " fill="#D98D3B" transform="translate(102,52)"/>
<path d="M0 0 C0 0.66 0 1.32 0 2 C-0.66 2 -1.32 2 -2 2 C-1.67 4.64 -1.34 7.28 -1 10 C-1.99 10.33 -2.98 10.66 -4 11 C-4.12375 10.030625 -4.2475 9.06125 -4.375 8.0625 C-4.58125 7.051875 -4.7875 6.04125 -5 5 C-5.66 4.67 -6.32 4.34 -7 4 C-2.25 0 -2.25 0 0 0 Z " fill="#B3997E" transform="translate(21,36)"/>
<path d="M0 0 C0 4.24645065 -1.81750806 6.38524772 -4 10 C-3.01 10 -2.02 10 -1 10 C-1.33 10.99 -1.66 11.98 -2 13 C-3.32 13 -4.64 13 -6 13 C-6.3125 9.8125 -6.3125 9.8125 -6 6 C-3.5625 3.125 -3.5625 3.125 -1 1 C-0.67 0.67 -0.34 0.34 0 0 Z " fill="#A67852" transform="translate(94,19)"/>
<path d="M0 0 C0.99 0.33 1.98 0.66 3 1 C3 3.97 3 6.94 3 10 C1.68 9.67 0.36 9.34 -1 9 C-0.67 6.03 -0.34 3.06 0 0 Z " fill="#314680" transform="translate(47,57)"/>
<path d="M0 0 C3 1 3 1 4 3 C4.99 3.66 5.98 4.32 7 5 C6.01 5.33 5.02 5.66 4 6 C5.65 6.33 7.3 6.66 9 7 C9 7.33 9 7.66 9 8 C5.625 8.1875 5.625 8.1875 2 8 C-0.1519437 4.77208445 -0.20086443 3.71599191 0 0 Z " fill="#50779D" transform="translate(78,62)"/>
<path d="M0 0 C4.0589816 -0.3183515 6.3474968 -0.39717586 9.875 1.75 C11.96374181 3.96160897 12.68151851 5.02750614 13 8 C10.13302508 6.71480435 8.02392288 5.42870746 6 3 C6 2.34 6 1.68 6 1 C4.02 1 2.04 1 0 1 C0 0.67 0 0.34 0 0 Z " fill="#CAC3B3" transform="translate(83,49)"/>
<path d="M0 0 C0.33 0 0.66 0 1 0 C1.25 6.625 1.25 6.625 -1 10 C-1.99 10 -2.98 10 -4 10 C-4.33 8.35 -4.66 6.7 -5 5 C-3.68 4.67 -2.36 4.34 -1 4 C-0.67 2.68 -0.34 1.36 0 0 Z " fill="#CBCBBD" transform="translate(51,61)"/>
<path d="M0 0 C2.25 -0.25 2.25 -0.25 5 0 C7.3125 2 7.3125 2 9 4 C8 7 8 7 6 8 C5.566875 7.236875 5.13375 6.47375 4.6875 5.6875 C3.26313215 3.41906232 1.96739903 1.7800277 0 0 Z " fill="#1F2E66" transform="translate(40,52)"/>
<path d="M0 0 C0.99 0.33 1.98 0.66 3 1 C-0.16952847 4.26008643 -3.39937989 7.22237877 -7 10 C-7.66 9.67 -8.32 9.34 -9 9 C-8.67 8.01 -8.34 7.02 -8 6 C-7.01 6 -6.02 6 -5 6 C-4.67 5.01 -4.34 4.02 -4 3 C-3.34 3 -2.68 3 -2 3 C-1.34 2.01 -0.68 1.02 0 0 Z " fill="#4D3C1E" transform="translate(100,4)"/>
<path d="M0 0 C2.97 0 5.94 0 9 0 C8.375 2.375 8.375 2.375 7 5 C3.875 6.3125 3.875 6.3125 1 7 C1 6.34 1 5.68 1 5 C2.32 4.67 3.64 4.34 5 4 C5 3.34 5 2.68 5 2 C3.35 1.67 1.7 1.34 0 1 C0 0.67 0 0.34 0 0 Z " fill="#E2BB75" transform="translate(82,71)"/>
<path d="M0 0 C3.53600465 1.91135386 5.78972846 3.62642766 8 7 C7.67 7.66 7.34 8.32 7 9 C2.36285097 7.53563715 2.36285097 7.53563715 0.6875 5.0625 C0 3 0 3 0 0 Z " fill="#E19C43" transform="translate(43,41)"/>
<path d="M0 0 C2.9375 0.375 2.9375 0.375 6 1 C7.35439668 3.70879335 7.06501451 6.00933268 7 9 C5.68 8.67 4.36 8.34 3 8 C3.2475 7.4225 3.495 6.845 3.75 6.25 C3.87375 5.13625 3.87375 5.13625 4 4 C2.14567913 1.72855926 2.14567913 1.72855926 0 0 Z " fill="#BDA286" transform="translate(99,31)"/>
<path d="M0 0 C0.99 0.33 1.98 0.66 3 1 C2.67 5.29 2.34 9.58 2 14 C1.67 14 1.34 14 1 14 C0.04738513 9.23692563 -0.08333357 4.8333472 0 0 Z " fill="#E49235" transform="translate(68,30)"/>
<path d="M0 0 C0.66 0 1.32 0 2 0 C2 0.66 2 1.32 2 2 C2.66 2.33 3.32 2.66 4 3 C-1.41538462 6.07692308 -1.41538462 6.07692308 -4.375 5.6875 C-4.91125 5.460625 -5.4475 5.23375 -6 5 C-5.34 4.01 -4.68 3.02 -4 2 C-2.68 2 -1.36 2 0 2 C0 1.34 0 0.68 0 0 Z " fill="#D4A06D" transform="translate(110,1)"/>
<path d="M0 0 C2.31 0 4.62 0 7 0 C7 0.33 7 0.66 7 1 C5.35 1.33 3.7 1.66 2 2 C2.33 3.32 2.66 4.64 3 6 C1.02 6.99 1.02 6.99 -1 8 C-1.125 2.25 -1.125 2.25 0 0 Z " fill="#B7BABD" transform="translate(80,51)"/>
<path d="M0 0 C-0.33 0.99 -0.66 1.98 -1 3 C-0.61067144 5.14255793 -0.61067144 5.14255793 0 7 C-1.32 6.34 -2.64 5.68 -4 5 C-3.67 4.01 -3.34 3.02 -3 2 C-4.65 1.67 -6.3 1.34 -8 1 C-8 0.67 -8 0.34 -8 0 C-4.71303767 -0.79953138 -3.28976808 -1.09658936 0 0 Z " fill="#B0937B" transform="translate(109,25)"/>
<path d="M0 0 C6.4 0.49230769 6.4 0.49230769 9.4375 3.0625 C10.2109375 4.0215625 10.2109375 4.0215625 11 5 C10.67 5.66 10.34 6.32 10 7 C9.401875 6.67 8.80375 6.34 8.1875 6 C5.94613529 4.79212012 5.94613529 4.79212012 3 5 C1.3125 2.5 1.3125 2.5 0 0 Z " fill="#C69D89" transform="translate(15,12)"/>
<path d="M0 0 C0.99 0 1.98 0 3 0 C3 0.99 3 1.98 3 3 C2.34 3 1.68 3 1 3 C0.34 5.97 -0.32 8.94 -1 12 C-1.33 12 -1.66 12 -2 12 C-2.17835515 7.45194365 -1.99785435 4.1205746 0 0 Z " fill="#DBAA80" transform="translate(10,3)"/>
<path d="M0 0 C1.98 0 3.96 0 6 0 C6 1.65 6 3.3 6 5 C4.35 4.67 2.7 4.34 1 4 C0.67 2.68 0.34 1.36 0 0 Z " fill="#E89B48" transform="translate(104,79)"/>
<path d="M0 0 C2.58926331 2.58926331 2.37398043 4.02705279 2.625 7.625 C2.69976562 8.62789062 2.77453125 9.63078125 2.8515625 10.6640625 C2.90054687 11.43492188 2.94953125 12.20578125 3 13 C2.01 13.495 2.01 13.495 1 14 C0.7834375 12.453125 0.7834375 12.453125 0.5625 10.875 C0.21070609 8.45153082 -0.17908717 6.03292931 -0.625 3.625 C-0.74875 2.75875 -0.8725 1.8925 -1 1 C-0.67 0.67 -0.34 0.34 0 0 Z " fill="#4D3C2C" transform="translate(7,45)"/>
<path d="M0 0 C0.99 0.66 1.98 1.32 3 2 C1.70700306 4.88437779 0.34058637 6.87219421 -2 9 C-3.125 4.25 -3.125 4.25 -2 2 C-1.34 2 -0.68 2 0 2 C0 1.34 0 0.68 0 0 Z " fill="#E6CAA1" transform="translate(21,36)"/>
<path d="M0 0 C1.32 0.66 2.64 1.32 4 2 C3.67 2.99 3.34 3.98 3 5 C2.34 5 1.68 5 1 5 C0.67 6.32 0.34 7.64 0 9 C-1.36623674 6.26752652 -1.128426 4.01801098 -1 1 C-0.67 0.67 -0.34 0.34 0 0 Z " fill="#496094" transform="translate(37,58)"/>
<path d="M0 0 C0.66 0.33 1.32 0.66 2 1 C1.04270084 2.12588014 0.08412105 3.2506715 -0.875 4.375 C-1.40867187 5.00148438 -1.94234375 5.62796875 -2.4921875 6.2734375 C-3.61432007 7.55836651 -4.79371975 8.79371975 -6 10 C-5.8125 6.6875 -5.8125 6.6875 -5 3 C-2.5625 1 -2.5625 1 0 0 Z " fill="#F2B05C" transform="translate(82,37)"/>
<path d="M0 0 C3.37462715 0.54723683 5.08235 1.0549 8 3 C8 3.99 8 4.98 8 6 C4.74456771 5.65120368 3.98126893 4.97866739 1.75 2.4375 C1.1725 1.633125 0.595 0.82875 0 0 Z " fill="#EBB25B" transform="translate(19,8)"/>
<path d="M0 0 C-0.66 1.98 -1.32 3.96 -2 6 C-3.32 6 -4.64 6 -6 6 C-5.6875 4.125 -5.6875 4.125 -5 2 C-2 0 -2 0 0 0 Z " fill="#F4D497" transform="translate(27,78)"/>
<path d="M0 0 C1.010625 0.0825 2.02125 0.165 3.0625 0.25 C5.2144437 3.47791555 5.26336443 4.53400809 5.0625 8.25 C4.835625 7.610625 4.60875 6.97125 4.375 6.3125 C3.22720196 3.98647686 3.22720196 3.98647686 0.5625 3.625 C-0.2625 3.50125 -1.0875 3.3775 -1.9375 3.25 C-2.5975 2.59 -3.2575 1.93 -3.9375 1.25 C-2.9375 0.25 -2.9375 0.25 0 0 Z " fill="#1C265A" transform="translate(84.9375,51.75)"/>
<path d="M0 0 C0.66 0 1.32 0 2 0 C1.67 2.31 1.34 4.62 1 7 C0.01 7 -0.98 7 -2 7 C-2.33 5.68 -2.66 4.36 -3 3 C-2.01 2.67 -1.02 2.34 0 2 C0 1.34 0 0.68 0 0 Z " fill="#D3AD99" transform="translate(109,30)"/>
<path d="M0 0 C0.33 0.66 0.66 1.32 1 2 C4.465 1.505 4.465 1.505 8 1 C4.31265242 3.45823172 1.30300029 4.01242616 -3 5 C-3 4.01 -3 3.02 -3 2 C-2.01 1.34 -1.02 0.68 0 0 Z " fill="#ECAE5F" transform="translate(94,68)"/>
<path d="M0 0 C0 0.66 0 1.32 0 2 C-3.22791555 4.1519437 -4.28400809 4.20086443 -8 4 C-7.67 3.01 -7.34 2.02 -7 1 C-4.53721199 -0.231394 -2.7204945 -0.07159196 0 0 Z " fill="#CCB091" transform="translate(109,21)"/>
<path d="M0 0 C2.97 0 5.94 0 9 0 C6.37801226 2.15377564 4.35595828 3.40072174 1 4 C0.67 2.68 0.34 1.36 0 0 Z " fill="#F4B155" transform="translate(14,75)"/>
<path d="M0 0 C0.91007812 0.00902344 1.82015625 0.01804688 2.7578125 0.02734375 C3.45648438 0.03894531 4.15515625 0.05054688 4.875 0.0625 C4.875 0.3925 4.875 0.7225 4.875 1.0625 C4.26011719 1.18367188 3.64523438 1.30484375 3.01171875 1.4296875 C2.20347656 1.59726562 1.39523438 1.76484375 0.5625 1.9375 C-0.23800781 2.09992187 -1.03851563 2.26234375 -1.86328125 2.4296875 C-4.37801118 3.00728999 -4.37801118 3.00728999 -7.125 5.0625 C-7.125 3.7425 -7.125 2.4225 -7.125 1.0625 C-4.60024538 -0.19987731 -2.81299534 -0.03606404 0 0 Z " fill="#C69E5F" transform="translate(38.125,47.9375)"/>
<path d="M0 0 C0.66 0.33 1.32 0.66 2 1 C2 3.19636905 1.67375452 4.911361 1 7 C0.01 7.495 0.01 7.495 -1 8 C-1 7.34 -1 6.68 -1 6 C-1.66 5.67 -2.32 5.34 -3 5 C-1.125 1.125 -1.125 1.125 0 0 Z " fill="#B79F85" transform="translate(17,28)"/>
<path d="M0 0 C2.31 0 4.62 0 7 0 C6.67 0.99 6.34 1.98 6 3 C4.68 3 3.36 3 2 3 C1.67 3.66 1.34 4.32 1 5 C0.67 3.35 0.34 1.7 0 0 Z " fill="#D1954E" transform="translate(13,84)"/>
<path d="M0 0 C0.66 0.33 1.32 0.66 2 1 C1.0479279 2.00596297 0.08812654 3.00461563 -0.875 4 C-1.40867187 4.556875 -1.94234375 5.11375 -2.4921875 5.6875 C-4 7 -4 7 -6 7 C-5.8125 5.1875 -5.8125 5.1875 -5 3 C-2.5625 1.1875 -2.5625 1.1875 0 0 Z " fill="#2A2830" transform="translate(6,82)"/>
<path d="M0 0 C1.32 0.66 2.64 1.32 4 2 C4 2.33 4 2.66 4 3 C-2.435 3.495 -2.435 3.495 -9 4 C-5.23312136 2.11656068 -3.97041037 1.77942165 0 2 C0 1.34 0 0.68 0 0 Z " fill="#CDB57E" transform="translate(95,77)"/>
<path d="M0 0 C0.99 0.33 1.98 0.66 3 1 C3.99 0.67 4.98 0.34 6 0 C8.00875442 0.27571139 10.01178687 0.60235737 12 1 C12 1.33 12 1.66 12 2 C8.7 2.66 5.4 3.32 2 4 C1.34 2.68 0.68 1.36 0 0 Z " fill="#362514" transform="translate(40,22)"/>
<path d="M0 0 C0.66 0.33 1.32 0.66 2 1 C1.01 2.485 1.01 2.485 0 4 C0.33 4.66 0.66 5.32 1 6 C-0.98 6 -2.96 6 -5 6 C-3.63016497 2.83884224 -3.0109362 2.0072908 0 0 Z " fill="#E7CEA8" transform="translate(105,12)"/>
<path d="M0 0 C-0.33 0.99 -0.66 1.98 -1 3 C-2.98 3.33 -4.96 3.66 -7 4 C-6.01 3.34 -5.02 2.68 -4 2 C-4.66 1.34 -5.32 0.68 -6 0 C-3.50907189 -1.24546405 -2.58919267 -0.7767578 0 0 Z " fill="#977569" transform="translate(72,69)"/>
<path d="M0 0 C0.66 0 1.32 0 2 0 C4 3 4 3 4 7 C3.01 6.67 2.02 6.34 1 6 C0.67 4.02 0.34 2.04 0 0 Z " fill="#FAB75C" transform="translate(45,26)"/>
<path d="M0 0 C0 0.66 0 1.32 0 2 C-0.66 2 -1.32 2 -2 2 C-2.33 2.99 -2.66 3.98 -3 5 C-4.32 5 -5.64 5 -7 5 C-6.1875 3.0625 -6.1875 3.0625 -5 1 C-2 0 -2 0 0 0 Z " fill="#EE9B38" transform="translate(22,54)"/>
<path d="M0 0 C0.99 0.99 1.98 1.98 3 3 C1.84826645 5.46800047 0.95216435 7.04783565 -1 9 C-1 5.72724974 -0.70074844 3.153368 0 0 Z " fill="#4C342D" transform="translate(112,46)"/>
<path d="M0 0 C0.33 0 0.66 0 1 0 C1 5.94 1 11.88 1 18 C0.67 18 0.34 18 0 18 C0 12.06 0 6.12 0 0 Z " fill="#000000" transform="translate(3,19)"/>
<path d="M0 0 C3.93673644 1.31224548 6.22719294 2.91910327 9 6 C7.68 6.33 6.36 6.66 5 7 C5 6.01 5 5.02 5 4 C4.360625 3.71125 3.72125 3.4225 3.0625 3.125 C1 2 1 2 0 0 Z " fill="#E4C6A6" transform="translate(19,15)"/>
<path d="M0 0 C2.64 0.66 5.28 1.32 8 2 C8 2.33 8 2.66 8 3 C5.03 3 2.06 3 -1 3 C-0.67 2.01 -0.34 1.02 0 0 Z " fill="#F3D38C" transform="translate(92,86)"/>
<path d="M0 0 C2.375 0.6875 2.375 0.6875 5 2 C6.3125 4.625 6.3125 4.625 7 7 C3.535 5.02 3.535 5.02 0 3 C0 2.01 0 1.02 0 0 Z " fill="#070607" transform="translate(114,80)"/>
<path d="M0 0 C2.31 0 4.62 0 7 0 C7 1.98 7 3.96 7 6 C5 5 5 5 4 2 C1.99983534 0.79117904 1.99983534 0.79117904 0 0 Z " fill="#E99D45" transform="translate(104,70)"/>
<path d="M0 0 C0.6875 1.8125 0.6875 1.8125 1 4 C-0.4375 5.75 -0.4375 5.75 -2 7 C-2.66 5.35 -3.32 3.7 -4 2 C-2.68 1.34 -1.36 0.68 0 0 Z " fill="#DFA693" transform="translate(16,47)"/>
<path d="M0 0 C2.64 0 5.28 0 8 0 C8.33 1.32 8.66 2.64 9 4 C8.01 4 7.02 4 6 4 C5.67 3.34 5.34 2.68 5 2 C2.47266765 1.34444881 2.47266765 1.34444881 0 1 C0 0.67 0 0.34 0 0 Z " fill="#3F2923" transform="translate(110,0)"/>
<path d="M0 0 C0.33 0 0.66 0 1 0 C1 3.3 1 6.6 1 10 C0.67 10 0.34 10 0 10 C0 6.7 0 3.4 0 0 Z " fill="#000000" transform="translate(115,70)"/>
<path d="M0 0 C0.33 0 0.66 0 1 0 C1 1.98 1 3.96 1 6 C0.34 5.67 -0.32 5.34 -1 5 C-0.67 3.35 -0.34 1.7 0 0 Z " fill="#000000" transform="translate(6,74)"/>
<path d="M0 0 C1.65 0 3.3 0 5 0 C5 0.33 5 0.66 5 1 C3.35 1 1.7 1 0 1 C0 0.67 0 0.34 0 0 Z " fill="#663300" transform="translate(55,20)"/>
<path d="M0 0 C4 1 4 1 4 1 Z " fill="#BF3F00" transform="translate(50,21)"/>
<path d="M0 0 C4 1 4 1 4 1 Z " fill="#000000" transform="translate(60,19)"/>
<path d="" fill="#000000" transform="translate(0,0)"/>
<path d="" fill="#000000" transform="translate(0,0)"/>
<path d="" fill="#000000" transform="translate(0,0)"/>
<path d="M0 0 C3 1 3 1 3 1 Z " fill="#AA0000" transform="translate(70,21)"/>
<path d="" fill="#000000" transform="translate(0,0)"/>
<path d="" fill="#000000" transform="translate(0,0)"/>
<path d="" fill="#000000" transform="translate(0,0)"/>
<path d="" fill="#000000" transform="translate(0,0)"/>
<path d="" fill="#000000" transform="translate(0,0)"/>
<path d="" fill="#000000" transform="translate(0,0)"/>
<path d="" fill="#000000" transform="translate(0,0)"/>
<path d="" fill="#000000" transform="translate(0,0)"/>
<path d="" fill="#FFFF00" transform="translate(0,0)"/>
<path d="" fill="#000000" transform="translate(0,0)"/>
<path d="" fill="#000000" transform="translate(0,0)"/>
<path d="" fill="#000000" transform="translate(0,0)"/>
<path d="" fill="#000000" transform="translate(0,0)"/>
<path d="" fill="#000000" transform="translate(0,0)"/>
<path d="" fill="#000000" transform="translate(0,0)"/>
</svg>
