<?xml version="1.0" encoding="UTF-8"?>
<svg xmlns="http://www.w3.org/2000/svg" xmlns:xlink="http://www.w3.org/1999/xlink" width="14px" height="14px" viewBox="0 0 14 14" version="1.1">
<g id="surface1">
<path style=" stroke:none;fill-rule:nonzero;fill:rgb(100%,100%,100%);fill-opacity:1;" d="M 1.75 1.605469 C 1.75 0.71875 2.46875 0 3.355469 0 L 11.8125 0 C 12.054688 0 12.25 0.195312 12.25 0.4375 L 12.25 12.394531 C 12.25 12.636719 12.054688 12.832031 11.8125 12.832031 L 8.3125 12.832031 C 8.070312 12.832031 7.875 12.636719 7.875 12.394531 C 7.875 12.152344 8.070312 11.957031 8.3125 11.957031 L 11.375 11.957031 L 11.375 9.625 L 3.5 9.625 C 3.015625 9.625 2.625 10.015625 2.625 10.5 L 2.625 10.9375 C 2.625 11.355469 2.875 11.714844 3.238281 11.875 C 3.449219 11.976562 3.546875 12.226562 3.449219 12.445312 C 3.355469 12.660156 3.105469 12.761719 2.886719 12.675781 C 2.195312 12.375 1.75 11.691406 1.75 10.9375 Z M 11.375 0.875 L 3.355469 0.875 C 2.953125 0.875 2.625 1.203125 2.625 1.605469 L 2.625 8.984375 C 2.890625 8.832031 3.191406 8.75 3.5 8.75 L 11.375 8.75 Z M 11.375 0.875 "/>
<path style=" stroke:none;fill-rule:nonzero;fill:rgb(100%,100%,100%);fill-opacity:1;" d="M 4.082031 10.644531 L 7.144531 10.5 L 7.292969 13.566406 L 5.773438 12.75 L 4.316406 13.683594 Z M 4.082031 10.644531 "/>
</g>
</svg>
