<?xml version="1.0" encoding="UTF-8"?>
<svg xmlns="http://www.w3.org/2000/svg" xmlns:xlink="http://www.w3.org/1999/xlink" width="18px" height="18px" viewBox="0 0 18 18" version="1.1">
<g id="surface1">
<path style=" stroke:none;fill-rule:nonzero;fill:rgb(100%,100%,100%);fill-opacity:1;" d="M 10.398438 16.714844 L 12.761719 16.714844 C 14.929688 16.714844 16.714844 14.929688 16.714844 12.761719 L 16.714844 5.238281 C 16.714844 3.070312 14.929688 1.285156 12.761719 1.285156 L 10.351562 1.285156 C 10.300781 1.285156 10.253906 1.332031 10.253906 1.382812 L 10.253906 16.617188 C 10.253906 16.667969 10.300781 16.714844 10.398438 16.714844 Z M 13.339844 8.230469 C 14.207031 8.230469 14.882812 8.953125 14.882812 9.769531 C 14.882812 10.640625 14.160156 11.3125 13.339844 11.3125 C 12.472656 11.3125 11.796875 10.640625 11.796875 9.769531 C 11.75 8.902344 12.472656 8.230469 13.339844 8.230469 Z M 8.613281 1.285156 L 5.238281 1.285156 C 3.070312 1.285156 1.285156 3.070312 1.285156 5.238281 L 1.285156 12.761719 C 1.285156 14.929688 3.070312 16.714844 5.238281 16.714844 L 8.613281 16.714844 C 8.660156 16.714844 8.710938 16.667969 8.710938 16.617188 L 8.710938 1.382812 C 8.710938 1.332031 8.664062 1.285156 8.613281 1.285156 Z M 7.507812 15.460938 L 5.238281 15.460938 C 3.742188 15.460938 2.539062 14.257812 2.539062 12.761719 L 2.539062 5.238281 C 2.539062 3.742188 3.742188 2.539062 5.238281 2.539062 L 7.457031 2.539062 Z M 3.695312 5.914062 C 3.695312 6.734375 4.324219 7.359375 5.144531 7.359375 C 5.960938 7.359375 6.589844 6.734375 6.589844 5.914062 C 6.589844 5.09375 5.960938 4.46875 5.144531 4.46875 C 4.324219 4.46875 3.695312 5.09375 3.695312 5.914062 Z M 3.695312 5.914062 "/>
</g>
</svg>
